<svg width="781" height="629" viewBox="0 0 781 629" fill="none" xmlns="http://www.w3.org/2000/svg">
<g opacity="0.2">
<path d="M174.7 150.394C164.898 145.784 148.688 153.28 143.518 164.247C133.651 185.183 165.563 215.504 177.167 212.249C190.136 208.612 192.695 158.857 174.698 150.394H174.7Z" stroke="#0F31AC" stroke-width="3.54482" stroke-miterlimit="10" stroke-linecap="round" stroke-dasharray="8.86 8.86 8.86 8.86 8.86 8.86"/>
<path d="M125.67 197.813C122.172 195.789 85.1177 174.355 64.1466 191.318C49.4214 203.229 49.2814 228.692 60.3465 243C82.2624 271.341 150.22 258.635 157.271 238.355C162.019 224.698 139.726 205.943 125.67 197.813Z" stroke="#0F31AC" stroke-width="3.54482" stroke-miterlimit="10" stroke-linecap="round" stroke-dasharray="8.86 8.86 8.86 8.86 8.86 8.86"/>
<path d="M173.351 547.779C263.547 525.392 366.033 502.6 525.174 506.482C614.176 508.653 634.344 481.034 701.797 446.693C761.919 416.087 791.447 355.226 773.312 320.733C755.003 285.911 699.235 299.775 653.564 247.939C632.765 224.33 636.425 207.783 624.417 181.603C586.39 98.7053 443.865 33.9113 373.584 68.2021C280.732 113.503 360.111 309.243 256.321 362.713C190.669 396.538 141.047 331.605 76.2227 381.173C44.1031 405.733 4.81943 440.185 1.78152 477.592C1.78152 477.592 -2.47227 569.048 173.351 547.779Z" stroke="#0F31AC" stroke-width="3.54482" stroke-miterlimit="10" stroke-linecap="round" stroke-dasharray="8.86 8.86 8.86 8.86 8.86 8.86"/>
<path d="M760.708 593.289C760.708 596.834 594.821 599.708 390.19 599.708C274.73 599.708 171.604 598.794 103.651 597.358C87.9991 597.029 74.2168 596.671 62.5774 596.289C54.9117 596.04 48.1766 595.779 42.4499 595.508C27.7176 594.818 19.6709 594.07 19.6709 593.289C19.6709 592.294 32.7318 591.352 56.0407 590.513C65.5852 590.168 76.8489 589.84 89.6386 589.535C111.368 589.014 137.504 588.551 167.1 588.165C208.815 587.617 257.406 587.22 310.222 587.018C310.247 587.018 310.273 587.018 310.3 587.018C336.028 586.921 362.762 586.869 390.19 586.869C417.618 586.869 444.452 586.921 470.228 587.02C521.967 587.217 569.648 587.601 610.784 588.129C630.302 588.381 648.346 588.665 664.651 588.977C724.337 590.116 760.708 591.63 760.708 593.289Z" fill="#040C2B"/>
<path d="M671.938 446.063C671.938 446.063 655.584 467.746 639.227 497.496C624.845 523.662 613.822 558.695 610.991 588.41C569.815 587.881 522.089 587.496 470.301 587.299C445.011 587.044 418.099 586.905 390.186 586.905C362.272 586.905 335.467 587.042 310.22 587.297C310.193 587.297 310.166 587.297 310.142 587.297C257.275 587.5 208.638 587.897 166.883 588.445C105.761 513.065 -12.6459 384.381 98.4378 331.131C98.4378 331.131 106.657 328.628 118.98 323.25C154.799 307.617 225.32 267.709 229.688 194.403C230.076 187.886 229.941 181.106 229.214 174.057C229.214 174.057 228.51 170.325 227.781 163.952C226.995 157.084 226.177 147.149 226.177 135.517C226.177 83.0812 242.777 -3.8357 353.602 0.131194C420.714 2.53688 482.522 36.6884 519.89 91.3521C556.543 144.967 615.149 210.934 662.876 173.273C673.893 164.576 688.46 161.355 702.061 165.178C736.414 174.827 775.441 224.781 671.938 446.063Z" fill="#5074FB"/>
</g>
<path d="M522.059 67.0566H486.65C482.718 67.0566 479.53 70.2443 479.53 74.1764V105.078C479.53 109.011 482.718 112.198 486.65 112.198H522.059C525.991 112.198 529.179 109.011 529.179 105.078V74.1764C529.179 70.2443 525.991 67.0566 522.059 67.0566Z" fill="#DEE4FC"/>
<path d="M519.609 96.9626L519.483 99.2721V99.3182L519.492 99.3217L520.551 99.6833C520.362 100.376 520.073 101.025 519.703 101.612C519.695 101.622 519.69 101.633 519.683 101.644L519.275 101.443L518.604 101.114L517.216 102.966L517.709 103.664C517.131 104.049 516.493 104.341 515.814 104.522L515.592 103.435L513.364 103.391L513.028 104.623C512.28 104.481 511.578 104.205 510.943 103.82L511.59 102.73L510.071 101.011L508.832 101.759L508.822 101.766C508.792 101.722 508.763 101.675 508.735 101.631C508.255 100.865 507.916 99.9917 507.753 99.0558L508.843 98.813L508.967 96.4557L507.842 96.1048C508.04 95.2593 508.384 94.4759 508.841 93.7847L509.997 94.4759L511.557 92.7833L510.938 91.7429C511.736 91.2519 512.636 90.9311 513.595 90.8301L513.841 92.2303L516.067 92.3419L516.418 91.181C516.619 91.0977 517.834 91.8616 518.425 92.3756L517.709 93.4249L519.199 95.2381L520.158 94.7081C520.447 95.3391 520.647 96.0232 520.745 96.7428L519.605 96.9644L519.609 96.9626ZM514.329 93.3451C513.499 93.3292 512.7 93.5667 512.014 94.0275C511.778 94.1852 511.557 94.3696 511.351 94.5787C510.544 95.3976 510.085 96.4982 510.061 97.6787C510.034 98.8591 510.443 99.9775 511.213 100.828C511.982 101.679 513.021 102.159 514.134 102.182C515.248 102.205 516.307 101.766 517.113 100.947C517.919 100.128 518.379 99.0275 518.403 97.847C518.43 96.6666 518.021 95.5482 517.251 94.6975C517.173 94.6106 517.092 94.5273 517.008 94.4493C516.269 93.7546 515.332 93.3646 514.33 93.3434L514.329 93.3451Z" fill="white"/>
<path d="M517.687 81.8213L517.547 84.5314L517.544 84.5845L517.556 84.5881L518.713 85.0117C518.504 85.8252 518.187 86.5874 517.783 87.2751C517.776 87.2875 517.769 87.2999 517.762 87.3123L517.317 87.0783L516.583 86.6937L515.062 88.8702L515.599 89.6873C514.967 90.1393 514.268 90.4831 513.527 90.6958L513.288 89.4214L510.853 89.3718L510.482 90.8163C509.665 90.6497 508.898 90.3271 508.205 89.877L508.914 88.5973L507.257 86.582L505.901 87.4612L505.888 87.4682C505.856 87.4151 505.824 87.3637 505.794 87.3087C505.271 86.4101 504.901 85.3874 504.726 84.2885L505.918 84.0014L506.058 81.2365L504.828 80.8253C505.046 79.8327 505.424 78.9128 505.926 78.1011L507.187 78.9093L508.896 76.9224L508.223 75.703C509.095 75.1252 510.08 74.7477 511.131 74.6289L511.397 76.2719L513.83 76.3978L514.215 75.0348C514.435 74.9373 515.762 75.8306 516.406 76.435L515.621 77.6668L517.248 79.7919L518.297 79.1698C518.612 79.9089 518.83 80.7118 518.935 81.5555L517.689 81.8178L517.687 81.8213ZM511.922 77.5853C511.014 77.5676 510.14 77.8476 509.389 78.39C509.132 78.5761 508.887 78.7923 508.662 79.0369C507.779 79.9993 507.276 81.2914 507.244 82.6757C507.214 84.0599 507.659 85.3715 508.499 86.3676C509.339 87.3637 510.474 87.9273 511.691 87.9521C512.911 87.9769 514.068 87.4612 514.951 86.4987C515.833 85.5363 516.337 84.2442 516.369 82.86C516.399 81.4757 515.954 80.1642 515.114 79.1681C515.029 79.067 514.94 78.9695 514.848 78.8774C514.041 78.0638 513.015 77.6066 511.922 77.5853Z" fill="white"/>
<path d="M505.787 91.7233L505.594 95.456L505.591 95.5304L505.608 95.5358L507.2 96.1189C506.913 97.239 506.477 98.2883 505.92 99.2348C505.91 99.2525 505.901 99.2685 505.89 99.2862L505.277 98.9654L504.268 98.4354L502.179 101.433L502.918 102.558C502.047 103.18 501.089 103.653 500.068 103.948L499.738 102.191L496.388 102.124L495.879 104.114C494.756 103.886 493.701 103.441 492.748 102.82L493.722 101.059L491.443 98.283L489.579 99.4936L489.563 99.5042C489.518 99.4315 489.476 99.3589 489.433 99.2862C488.714 98.049 488.205 96.64 487.964 95.1263L489.603 94.7329L489.795 90.9257L488.104 90.3603C488.405 88.9938 488.923 87.7283 489.614 86.6099L491.351 87.723L493.701 84.9864L492.774 83.3061C493.974 82.5103 495.33 81.991 496.773 81.8262L497.14 84.0878L500.486 84.2615L501.016 82.3845C501.319 82.2498 503.143 83.4816 504.029 84.3111L502.95 86.0073L505.186 88.9335L506.629 88.0757C507.062 89.0948 507.363 90.199 507.506 91.3617L505.793 91.7233H505.787ZM497.859 85.8885C496.611 85.8637 495.41 86.2501 494.376 86.9981C494.022 87.2533 493.687 87.551 493.377 87.8896C492.163 89.2136 491.47 90.9931 491.429 92.9002C491.386 94.8073 492 96.6134 493.155 97.9852C494.311 99.3571 495.869 100.132 497.544 100.165C499.219 100.199 500.81 99.4882 502.026 98.1642C503.24 96.8403 503.933 95.0608 503.974 93.1536C504.017 91.2465 503.403 89.4404 502.248 88.0686C502.131 87.9286 502.008 87.7956 501.883 87.668C500.775 86.5461 499.364 85.9187 497.859 85.8885Z" fill="white"/>
<path d="M743.079 272.302H707.67C703.738 272.302 700.55 275.489 700.55 279.422V310.324C700.55 314.256 703.738 317.443 707.67 317.443H743.079C747.011 317.443 750.199 314.256 750.199 310.324V279.422C750.199 275.489 747.011 272.302 743.079 272.302Z" fill="#DEE4FC"/>
<path d="M741.229 285.085V304.661C741.229 305.06 741.102 305.427 740.885 305.728C740.689 305.994 740.424 306.207 740.118 306.338C739.902 306.43 739.66 306.481 739.411 306.481H711.341C711.089 306.481 710.85 306.43 710.634 306.338C710.325 306.209 710.061 305.994 709.866 305.728C709.652 305.429 709.522 305.06 709.522 304.661V285.085C709.522 284.782 709.599 284.493 709.73 284.241C709.879 283.956 710.102 283.717 710.371 283.546C710.653 283.367 710.985 283.265 711.341 283.265H739.411C739.767 283.265 740.1 283.367 740.38 283.546C740.65 283.717 740.873 283.956 741.022 284.241C741.155 284.493 741.229 284.782 741.229 285.085Z" fill="white"/>
<path d="M741.023 284.241L727.546 295.969L726.816 296.605L726.516 296.866C726.192 297.149 725.784 297.291 725.376 297.291C724.969 297.291 724.561 297.149 724.237 296.866L723.937 296.605L723.207 295.969L709.729 284.241C709.878 283.955 710.102 283.716 710.371 283.546L723.987 295.398L724.717 296.034L724.855 296.155C725.151 296.412 725.601 296.412 725.897 296.155L726.036 296.034L726.766 295.398L740.382 283.546C740.651 283.716 740.874 283.955 741.023 284.241Z" fill="#829CF8"/>
<path d="M724.715 296.033L723.933 296.605L710.63 306.338C710.321 306.208 710.057 305.994 709.862 305.728L723.203 295.969L723.985 295.396L724.715 296.033Z" fill="#829CF8"/>
<path d="M740.887 305.728C740.69 305.994 740.426 306.206 740.12 306.338L726.816 296.605L726.034 296.033L726.764 295.396L727.546 295.969L740.887 305.728Z" fill="#829CF8"/>
<path d="M653.571 162.235H618.162C614.23 162.235 611.042 165.423 611.042 169.355V200.257C611.042 204.189 614.23 207.377 618.162 207.377H653.571C657.503 207.377 660.691 204.189 660.691 200.257V169.355C660.691 165.423 657.503 162.235 653.571 162.235Z" fill="#DEE4FC"/>
<path opacity="0.1" d="M649.929 172.76L635.868 167.116L621.808 172.76V188.265H621.932C622.12 196.139 635.868 202.495 635.868 202.495C635.868 202.495 649.617 196.139 649.805 188.265H649.929V172.76Z" fill="#829CF8"/>
<path d="M635.869 201.819C635.038 201.413 632.156 199.949 629.294 197.818C627.33 196.356 625.761 194.873 624.63 193.409C623.255 191.626 622.537 189.873 622.496 188.203L622.484 187.65H622.374V173.093L635.869 167.677L649.364 173.093V187.65H649.254L649.242 188.203C649.203 189.874 648.485 191.626 647.108 193.409C645.979 194.873 644.41 196.358 642.445 197.818C639.584 199.949 636.7 201.413 635.869 201.819Z" fill="white"/>
<path d="M645.287 182.733C645.305 177.683 641.225 173.574 636.175 173.557C631.125 173.539 627.017 177.619 627 182.669C626.982 187.719 631.062 191.827 636.112 191.844C641.162 191.862 645.27 187.782 645.287 182.733Z" fill="#CDD7FB"/>
<path d="M636.092 191.14C633.834 191.14 631.709 190.261 630.112 188.664C628.515 187.067 627.636 184.944 627.636 182.684C627.636 180.424 628.515 178.301 630.112 176.704C631.709 175.107 633.832 174.228 636.092 174.228C638.352 174.228 640.475 175.107 642.072 176.704C643.669 178.301 644.548 180.424 644.548 182.684C644.548 184.944 643.669 187.067 642.072 188.664C640.475 190.261 638.352 191.14 636.092 191.14Z" fill="white"/>
<path d="M637.66 178.981C637.257 178.547 636.702 178.277 636.089 178.277C634.863 178.277 633.87 179.353 633.87 180.679V181.594H634.358V180.679C634.358 179.646 635.136 178.804 636.089 178.804C637.043 178.804 637.821 179.644 637.821 180.679V181.594H638.308V180.679C638.308 180.016 638.06 179.415 637.658 178.981H637.66Z" fill="#ACBCF8"/>
<path d="M638.815 181.594H633.367C632.945 181.594 632.604 181.927 632.604 182.338V186.344C632.604 186.755 632.947 187.088 633.367 187.088H638.815C639.237 187.088 639.577 186.755 639.577 186.344V182.338C639.577 181.927 639.235 181.594 638.815 181.594ZM636.483 184.392V185.202C636.483 185.325 636.383 185.424 636.261 185.424H635.921C635.798 185.424 635.699 185.325 635.699 185.202V184.392C635.55 184.275 635.456 184.096 635.456 183.893C635.456 183.542 635.74 183.258 636.091 183.258C636.442 183.258 636.725 183.542 636.725 183.893C636.725 184.095 636.63 184.275 636.483 184.392Z" fill="#ACBCF8"/>
<path d="M175.628 319.888H140.22C136.287 319.888 133.101 316.699 133.101 312.768V281.868C133.101 277.935 136.289 274.748 140.22 274.748H175.628C179.561 274.748 182.748 277.937 182.748 281.868V312.768C182.748 316.701 179.559 319.888 175.628 319.888Z" fill="#DEE4FC"/>
<path d="M151.466 309.43L143.344 301.098C141.671 299.383 141.707 296.634 143.422 294.96C145.138 293.287 147.887 293.323 149.56 295.038L153.247 298.821L166.32 285.747C168.015 284.053 170.764 284.053 172.458 285.747C174.153 287.442 174.153 290.191 172.458 291.885L154.892 309.452C153.943 310.4 152.401 310.391 151.466 309.43Z" fill="white"/>
<path d="M70.702 420.384H35.2946C31.3616 420.384 28.1748 417.195 28.1748 413.264V382.364C28.1748 378.431 31.3634 375.244 35.2946 375.244H70.702C74.635 375.244 77.8218 378.433 77.8218 382.364V413.264C77.8218 417.197 74.6332 420.384 70.702 420.384Z" fill="#DEE4FC"/>
<path d="M52.9961 395.921C56.4398 395.921 59.2314 393.129 59.2314 389.686C59.2314 386.242 56.4398 383.45 52.9961 383.45C49.5524 383.45 46.7607 386.242 46.7607 389.686C46.7607 393.129 49.5524 395.921 52.9961 395.921Z" fill="white"/>
<path d="M49.1571 397.925H56.837C61.1085 397.925 64.5788 401.393 64.5788 405.667V411.287C64.5788 411.78 64.18 412.179 63.6873 412.179H42.3085C41.8158 412.179 41.417 411.78 41.417 411.287V405.667C41.417 401.395 44.8856 397.925 49.1589 397.925H49.1571Z" fill="white"/>
<path d="M592.171 233.989H228.229V502.55H592.171V233.989Z" fill="#E3E9F7" stroke="black" stroke-width="0.0443103" stroke-miterlimit="10"/>
<path d="M592.168 205.563H228.347V234.051H592.168V205.563Z" fill="#ACBCF8" stroke="black" stroke-width="0.0443103" stroke-miterlimit="10"/>
<path d="M242.774 223.038C245.422 223.038 247.568 220.997 247.568 218.48C247.568 215.962 245.422 213.921 242.774 213.921C240.126 213.921 237.979 215.962 237.979 218.48C237.979 220.997 240.126 223.038 242.774 223.038Z" fill="#E3E9F7"/>
<path d="M256.758 223.038C259.406 223.038 261.553 220.997 261.553 218.48C261.553 215.962 259.406 213.921 256.758 213.921C254.11 213.921 251.964 215.962 251.964 218.48C251.964 220.997 254.11 223.038 256.758 223.038Z" fill="#E3E9F7"/>
<path d="M270.739 223.038C273.387 223.038 275.533 220.997 275.533 218.48C275.533 215.962 273.387 213.921 270.739 213.921C268.091 213.921 265.944 215.962 265.944 218.48C265.944 220.997 268.091 223.038 270.739 223.038Z" fill="#E3E9F7"/>
<path d="M582.783 247.325H237.62V489.217H582.783V247.325Z" fill="#F9FBFD"/>
<path d="M403.366 308.871C397.704 308.871 392.377 306.666 388.374 302.66C384.368 298.654 382.163 293.33 382.163 287.667C382.163 282.004 384.368 276.678 388.374 272.674C392.379 268.669 397.704 266.464 403.366 266.464C409.029 266.464 414.355 268.669 418.359 272.674C422.365 276.68 424.57 282.004 424.57 287.667C424.57 293.33 422.365 298.656 418.359 302.66C414.354 306.666 409.029 308.871 403.366 308.871Z" fill="#DEE4FC"/>
<path d="M417.249 301.548C424.915 293.882 424.915 281.452 417.249 273.786C409.582 266.119 397.152 266.119 389.486 273.786C381.819 281.452 381.819 293.882 389.486 301.548C397.152 309.215 409.582 309.215 417.249 301.548Z" fill="white"/>
<path d="M407.544 277.821C406.475 276.665 404.998 275.949 403.368 275.949C400.107 275.949 397.464 278.81 397.464 282.339V284.771H398.76V282.339C398.76 279.59 400.826 277.353 403.368 277.353C405.909 277.353 407.976 279.59 407.976 282.339V284.771H409.272V282.339C409.272 280.575 408.611 278.977 407.542 277.821H407.544Z" fill="#0F31AC"/>
<path d="M410.616 284.77H396.124C395.004 284.77 394.097 285.656 394.097 286.749V297.407C394.097 298.5 395.004 299.387 396.124 299.387H410.616C411.736 299.387 412.643 298.5 412.643 297.407V286.749C412.643 285.656 411.736 284.77 410.616 284.77ZM404.41 292.215V294.367C404.41 294.693 404.146 294.956 403.822 294.956H402.918C402.592 294.956 402.33 294.691 402.33 294.367V292.215C401.936 291.907 401.683 291.427 401.683 290.886C401.683 289.954 402.438 289.197 403.372 289.197C404.306 289.197 405.061 289.952 405.061 290.886C405.061 291.425 404.807 291.907 404.414 292.215H404.41Z" fill="#0F31AC"/>
<path opacity="0.15" d="M459.82 442.142H346.914C343.658 442.142 341.019 444.781 341.019 448.037V464.182C341.019 467.437 343.658 470.077 346.914 470.077H459.82C463.075 470.077 465.715 467.437 465.715 464.182V448.037C465.715 444.781 463.075 442.142 459.82 442.142Z" fill="black"/>
<path d="M459.82 440.454H346.914C343.658 440.454 341.019 443.093 341.019 446.349V461.932C341.019 465.188 343.658 467.827 346.914 467.827H459.82C463.075 467.827 465.715 465.188 465.715 461.932V446.349C465.715 443.093 463.075 440.454 459.82 440.454Z" fill="#0F31AC"/>
<path d="M351.866 455.18V458.577H349.987V449.721H352.568C353.771 449.721 354.661 449.94 355.239 450.378C355.817 450.816 356.106 451.482 356.106 452.374C356.106 452.895 355.962 453.358 355.675 453.764C355.388 454.169 354.982 454.488 354.457 454.717C355.79 456.708 356.659 457.994 357.063 458.576H354.978L352.864 455.178H351.864L351.866 455.18ZM351.866 453.654H352.472C353.066 453.654 353.504 453.554 353.787 453.358C354.069 453.159 354.211 452.849 354.211 452.425C354.211 452.002 354.066 451.706 353.779 451.529C353.49 451.351 353.043 451.263 352.437 451.263H351.868V453.655L351.866 453.654Z" fill="white"/>
<path d="M363.28 458.578H358.179V449.722H363.28V451.26H360.057V453.204H363.056V454.743H360.057V457.028H363.28V458.578Z" fill="white"/>
<path d="M370.358 456.119C370.358 456.918 370.071 457.549 369.495 458.008C368.918 458.469 368.117 458.699 367.093 458.699C366.148 458.699 365.312 458.522 364.585 458.166V456.422C365.182 456.687 365.689 456.875 366.102 456.985C366.515 457.095 366.894 457.148 367.238 457.148C367.649 457.148 367.967 457.07 368.187 456.913C368.406 456.755 368.516 456.521 368.516 456.211C368.516 456.037 368.468 455.883 368.371 455.748C368.273 455.613 368.132 455.482 367.944 455.358C367.756 455.232 367.373 455.034 366.795 454.759C366.255 454.504 365.849 454.261 365.577 454.025C365.306 453.791 365.09 453.518 364.929 453.208C364.768 452.898 364.686 452.535 364.686 452.118C364.686 451.335 364.952 450.718 365.484 450.271C366.015 449.823 366.749 449.6 367.685 449.6C368.146 449.6 368.585 449.655 369.002 449.763C369.42 449.873 369.858 450.025 370.313 450.224L369.707 451.684C369.234 451.491 368.844 451.354 368.536 451.278C368.227 451.202 367.922 451.163 367.625 451.163C367.268 451.163 366.997 451.246 366.808 451.411C366.618 451.576 366.522 451.792 366.522 452.06C366.522 452.225 366.561 452.37 366.637 452.492C366.714 452.616 366.836 452.735 367.004 452.85C367.173 452.965 367.568 453.173 368.195 453.471C369.023 453.866 369.59 454.263 369.897 454.662C370.203 455.059 370.358 455.548 370.358 456.124V456.119Z" fill="white"/>
<path d="M377.061 458.578H371.96V449.722H377.061V451.26H373.839V453.204H376.838V454.743H373.839V457.028H377.061V458.578Z" fill="white"/>
<path d="M382.326 458.578H380.447V451.285H378.042V449.722H384.729V451.285H382.324V458.578H382.326Z" fill="white"/>
<path d="M395.436 452.484C395.436 453.437 395.138 454.166 394.542 454.671C393.947 455.176 393.1 455.428 392.001 455.428H391.194V458.577H389.315V449.721H392.144C393.218 449.721 394.035 449.951 394.595 450.414C395.156 450.876 395.434 451.566 395.434 452.482L395.436 452.484ZM391.196 453.889H391.815C392.392 453.889 392.825 453.776 393.11 453.547C393.397 453.319 393.541 452.987 393.541 452.551C393.541 452.115 393.42 451.786 393.181 451.576C392.94 451.367 392.564 451.261 392.052 451.261H391.198V453.889H391.196Z" fill="white"/>
<path d="M402.532 458.579L401.89 456.471H398.661L398.019 458.579H395.995L399.122 449.685H401.417L404.556 458.579H402.532ZM401.442 454.895C400.848 452.985 400.513 451.905 400.439 451.654C400.364 451.404 400.311 451.205 400.277 451.06C400.144 451.578 399.761 452.855 399.132 454.895H401.44H401.442Z" fill="white"/>
<path d="M410.897 456.119C410.897 456.918 410.61 457.549 410.034 458.008C409.458 458.469 408.656 458.699 407.632 458.699C406.687 458.699 405.851 458.522 405.124 458.166V456.422C405.721 456.687 406.228 456.875 406.641 456.985C407.054 457.095 407.433 457.148 407.777 457.148C408.189 457.148 408.506 457.07 408.726 456.913C408.945 456.755 409.055 456.521 409.055 456.211C409.055 456.037 409.007 455.883 408.91 455.748C408.812 455.613 408.671 455.482 408.483 455.358C408.295 455.232 407.912 455.034 407.334 454.759C406.794 454.504 406.388 454.261 406.117 454.025C405.845 453.791 405.629 453.518 405.468 453.208C405.307 452.898 405.225 452.535 405.225 452.118C405.225 451.335 405.491 450.718 406.023 450.271C406.554 449.823 407.288 449.6 408.224 449.6C408.685 449.6 409.124 449.655 409.541 449.763C409.959 449.873 410.397 450.025 410.852 450.224L410.246 451.684C409.773 451.491 409.383 451.354 409.075 451.278C408.766 451.202 408.461 451.163 408.164 451.163C407.807 451.163 407.536 451.246 407.347 451.411C407.157 451.576 407.061 451.792 407.061 452.06C407.061 452.225 407.1 452.37 407.176 452.492C407.253 452.616 407.375 452.735 407.543 452.85C407.712 452.965 408.107 453.173 408.734 453.471C409.562 453.866 410.129 454.263 410.436 454.662C410.743 455.059 410.897 455.548 410.897 456.124V456.119Z" fill="white"/>
<path d="M417.729 456.119C417.729 456.918 417.442 457.549 416.866 458.008C416.29 458.469 415.488 458.699 414.464 458.699C413.519 458.699 412.683 458.522 411.956 458.166V456.422C412.553 456.687 413.06 456.875 413.473 456.985C413.886 457.095 414.265 457.148 414.609 457.148C415.021 457.148 415.338 457.07 415.558 456.913C415.777 456.755 415.887 456.521 415.887 456.211C415.887 456.037 415.839 455.883 415.742 455.748C415.644 455.613 415.503 455.482 415.315 455.358C415.127 455.232 414.744 455.034 414.166 454.759C413.626 454.504 413.22 454.261 412.949 454.025C412.677 453.791 412.461 453.518 412.3 453.208C412.139 452.898 412.057 452.535 412.057 452.118C412.057 451.335 412.323 450.718 412.855 450.271C413.386 449.823 414.12 449.6 415.056 449.6C415.517 449.6 415.956 449.655 416.373 449.763C416.791 449.873 417.229 450.025 417.684 450.224L417.078 451.684C416.605 451.491 416.215 451.354 415.907 451.278C415.598 451.202 415.293 451.163 414.996 451.163C414.639 451.163 414.368 451.246 414.179 451.411C413.989 451.576 413.893 451.792 413.893 452.06C413.893 452.225 413.932 452.37 414.008 452.492C414.085 452.616 414.207 452.735 414.375 452.85C414.544 452.965 414.939 453.173 415.566 453.471C416.394 453.866 416.961 454.263 417.268 454.662C417.575 455.059 417.729 455.548 417.729 456.124V456.119Z" fill="white"/>
<path d="M427.963 458.578H425.824L424.624 453.926C424.579 453.761 424.503 453.417 424.397 452.9C424.29 452.38 424.228 452.033 424.212 451.854C424.188 452.072 424.127 452.423 424.03 452.905C423.932 453.387 423.858 453.733 423.807 453.938L422.614 458.578H420.482L418.222 449.722H420.069L421.201 454.557C421.4 455.45 421.541 456.223 421.632 456.877C421.657 456.646 421.712 456.29 421.798 455.808C421.885 455.326 421.967 454.95 422.043 454.684L423.333 449.723H425.108L426.398 454.684C426.455 454.906 426.525 455.246 426.611 455.702C426.696 456.159 426.759 456.551 426.804 456.877C426.844 456.561 426.908 456.17 426.997 455.698C427.086 455.229 427.167 454.847 427.24 454.557L428.367 449.722H430.214L427.961 458.578H427.963Z" fill="white"/>
<path d="M439.37 454.139C439.37 455.605 439.006 456.732 438.28 457.519C437.553 458.306 436.511 458.701 435.153 458.701C433.795 458.701 432.753 458.308 432.027 457.519C431.3 456.732 430.937 455.601 430.937 454.127C430.937 452.652 431.302 451.526 432.03 450.748C432.759 449.97 433.804 449.582 435.166 449.582C436.527 449.582 437.567 449.974 438.288 450.757C439.01 451.541 439.37 452.668 439.37 454.137V454.139ZM432.906 454.139C432.906 455.128 433.094 455.874 433.469 456.374C433.845 456.876 434.407 457.125 435.153 457.125C436.651 457.125 437.4 456.129 437.4 454.139C437.4 452.148 436.656 451.147 435.166 451.147C434.418 451.147 433.856 451.399 433.475 451.9C433.095 452.404 432.906 453.15 432.906 454.139Z" fill="white"/>
<path d="M443.085 455.18V458.577H441.206V449.721H443.787C444.99 449.721 445.88 449.94 446.458 450.378C447.035 450.816 447.324 451.482 447.324 452.374C447.324 452.895 447.181 453.358 446.894 453.764C446.607 454.169 446.201 454.488 445.676 454.717C447.009 456.708 447.877 457.994 448.282 458.576H446.197L444.083 455.178H443.083L443.085 455.18ZM443.085 453.654H443.691C444.285 453.654 444.723 453.554 445.006 453.358C445.288 453.159 445.43 452.849 445.43 452.425C445.43 452.002 445.284 451.706 444.997 451.529C444.708 451.351 444.262 451.263 443.655 451.263H443.087V453.655L443.085 453.654Z" fill="white"/>
<path d="M456.742 454.066C456.742 455.525 456.327 456.641 455.498 457.416C454.668 458.192 453.47 458.578 451.901 458.578H449.394V449.722H452.174C453.621 449.722 454.743 450.103 455.542 450.867C456.341 451.631 456.742 452.696 456.742 454.066ZM454.792 454.114C454.792 452.212 453.952 451.26 452.272 451.26H451.272V457.028H452.079C453.888 457.028 454.792 456.056 454.792 454.114Z" fill="white"/>
<path d="M316.041 365.759C316.041 366.303 315.871 366.72 315.531 367.009C315.19 367.298 314.706 367.441 314.079 367.441H313.618V369.242H312.546V364.182H314.162C314.776 364.182 315.244 364.315 315.563 364.579C315.882 364.843 316.043 365.236 316.043 365.761L316.041 365.759ZM313.616 366.562H313.969C314.299 366.562 314.545 366.496 314.71 366.367C314.873 366.238 314.956 366.046 314.956 365.798C314.956 365.55 314.887 365.36 314.751 365.242C314.613 365.121 314.398 365.061 314.106 365.061H313.618V366.564L313.616 366.562Z" fill="#ACBCF8"/>
<path d="M320.093 369.243L319.726 368.037H317.881L317.514 369.243H316.358L318.145 364.161H319.457L321.25 369.243H320.095H320.093ZM319.469 367.139C319.13 366.047 318.939 365.43 318.897 365.287C318.854 365.143 318.824 365.03 318.804 364.948C318.728 365.244 318.51 365.974 318.15 367.139H319.469Z" fill="#ACBCF8"/>
<path d="M324.876 367.837C324.876 368.294 324.711 368.654 324.383 368.916C324.053 369.178 323.596 369.311 323.011 369.311C322.47 369.311 321.994 369.21 321.577 369.007V368.01C321.919 368.163 322.208 368.269 322.444 368.333C322.68 368.395 322.896 368.427 323.093 368.427C323.328 368.427 323.509 368.383 323.635 368.292C323.761 368.202 323.823 368.069 323.823 367.89C323.823 367.791 323.794 367.702 323.739 367.626C323.685 367.548 323.603 367.473 323.495 367.403C323.387 367.332 323.169 367.216 322.839 367.06C322.529 366.915 322.299 366.775 322.143 366.642C321.988 366.509 321.864 366.353 321.772 366.174C321.68 365.997 321.634 365.79 321.634 365.55C321.634 365.102 321.786 364.751 322.089 364.494C322.392 364.237 322.813 364.109 323.348 364.109C323.61 364.109 323.862 364.141 324.101 364.203C324.34 364.265 324.59 364.354 324.851 364.466L324.505 365.3C324.236 365.191 324.012 365.113 323.835 365.068C323.658 365.024 323.484 365.003 323.314 365.003C323.11 365.003 322.954 365.051 322.846 365.144C322.738 365.24 322.683 365.362 322.683 365.515C322.683 365.611 322.704 365.692 322.749 365.763C322.793 365.834 322.862 365.901 322.958 365.967C323.054 366.032 323.28 366.151 323.638 366.321C324.112 366.548 324.436 366.775 324.611 367.002C324.787 367.229 324.874 367.509 324.874 367.839L324.876 367.837Z" fill="#ACBCF8"/>
<path d="M328.778 367.837C328.778 368.294 328.613 368.654 328.285 368.916C327.956 369.178 327.498 369.311 326.913 369.311C326.373 369.311 325.896 369.21 325.479 369.007V368.01C325.822 368.163 326.11 368.269 326.346 368.333C326.582 368.395 326.798 368.427 326.995 368.427C327.231 368.427 327.411 368.383 327.537 368.292C327.663 368.202 327.725 368.069 327.725 367.89C327.725 367.791 327.697 367.702 327.642 367.626C327.587 367.548 327.505 367.473 327.397 367.403C327.289 367.332 327.071 367.216 326.741 367.06C326.431 366.915 326.201 366.775 326.045 366.642C325.891 366.509 325.767 366.353 325.674 366.174C325.582 365.997 325.536 365.79 325.536 365.55C325.536 365.102 325.689 364.751 325.992 364.494C326.295 364.237 326.715 364.109 327.25 364.109C327.512 364.109 327.764 364.141 328.003 364.203C328.243 364.265 328.493 364.354 328.753 364.466L328.408 365.3C328.138 365.191 327.915 365.113 327.738 365.068C327.56 365.024 327.387 365.003 327.216 365.003C327.013 365.003 326.857 365.051 326.749 365.144C326.64 365.24 326.585 365.362 326.585 365.515C326.585 365.611 326.607 365.692 326.651 365.763C326.695 365.834 326.764 365.901 326.86 365.967C326.956 366.032 327.183 366.151 327.541 366.321C328.014 366.548 328.338 366.775 328.514 367.002C328.689 367.229 328.776 367.509 328.776 367.839L328.778 367.837Z" fill="#ACBCF8"/>
<path d="M334.625 369.242H333.404L332.718 366.583C332.693 366.489 332.649 366.293 332.588 365.997C332.526 365.701 332.493 365.502 332.482 365.399C332.468 365.523 332.434 365.724 332.377 366C332.322 366.277 332.28 366.473 332.25 366.59L331.567 369.242H330.35L329.058 364.182H330.114L330.761 366.945C330.874 367.455 330.956 367.897 331.007 368.271C331.021 368.139 331.053 367.936 331.103 367.659C331.153 367.384 331.199 367.17 331.243 367.017L331.98 364.182H332.994L333.731 367.017C333.763 367.145 333.804 367.338 333.852 367.599C333.9 367.859 333.937 368.083 333.962 368.271C333.985 368.09 334.022 367.866 334.072 367.597C334.123 367.328 334.169 367.111 334.21 366.945L334.853 364.182H335.91L334.621 369.242H334.625Z" fill="#ACBCF8"/>
<path d="M341.144 366.704C341.144 367.543 340.937 368.186 340.52 368.636C340.106 369.086 339.51 369.311 338.734 369.311C337.957 369.311 337.364 369.086 336.947 368.636C336.532 368.186 336.323 367.541 336.323 366.697C336.323 365.854 336.531 365.212 336.949 364.767C337.365 364.322 337.963 364.101 338.741 364.101C339.519 364.101 340.113 364.324 340.526 364.772C340.937 365.221 341.144 365.864 341.144 366.704ZM337.45 366.704C337.45 367.27 337.559 367.695 337.773 367.982C337.988 368.269 338.308 368.411 338.735 368.411C339.592 368.411 340.02 367.842 340.02 366.704C340.02 365.566 339.595 364.994 338.743 364.994C338.315 364.994 337.993 365.137 337.777 365.425C337.56 365.712 337.45 366.139 337.45 366.704Z" fill="#ACBCF8"/>
<path d="M343.267 367.299V369.242H342.194V364.182H343.669C344.357 364.182 344.865 364.308 345.195 364.557C345.525 364.807 345.69 365.188 345.69 365.699C345.69 365.997 345.608 366.261 345.443 366.493C345.28 366.725 345.048 366.906 344.747 367.039C345.509 368.177 346.005 368.912 346.235 369.244H345.044L343.836 367.301H343.265L343.267 367.299ZM343.267 366.427H343.612C343.951 366.427 344.202 366.371 344.364 366.257C344.525 366.144 344.607 365.966 344.607 365.724C344.607 365.481 344.523 365.312 344.358 365.211C344.194 365.11 343.938 365.059 343.591 365.059H343.265V366.426L343.267 366.427Z" fill="#ACBCF8"/>
<path d="M351.073 366.663C351.073 367.496 350.835 368.134 350.362 368.577C349.889 369.02 349.203 369.242 348.308 369.242H346.874V364.182H348.462C349.288 364.182 349.93 364.4 350.387 364.836C350.844 365.272 351.073 365.881 351.073 366.663ZM349.958 366.691C349.958 365.605 349.478 365.061 348.519 365.061H347.948V368.356H348.409C349.442 368.356 349.96 367.801 349.96 366.691H349.958Z" fill="#ACBCF8"/>
<path d="M314.917 406.745C314.513 406.745 314.201 406.897 313.98 407.2C313.758 407.503 313.648 407.927 313.648 408.469C313.648 409.598 314.072 410.162 314.919 410.162C315.274 410.162 315.704 410.073 316.211 409.896V410.797C315.797 410.97 315.332 411.055 314.82 411.055C314.084 411.055 313.521 410.832 313.131 410.385C312.741 409.939 312.546 409.299 312.546 408.462C312.546 407.936 312.642 407.475 312.833 407.08C313.024 406.685 313.299 406.38 313.659 406.169C314.017 405.958 314.439 405.852 314.921 405.852C315.403 405.852 315.906 405.97 316.403 406.208L316.057 407.08C315.867 406.989 315.678 406.911 315.486 406.844C315.295 406.777 315.107 406.743 314.923 406.743L314.917 406.745Z" fill="#ACBCF8"/>
<path d="M321.879 408.447C321.879 409.286 321.671 409.929 321.255 410.379C320.84 410.83 320.244 411.055 319.468 411.055C318.692 411.055 318.098 410.83 317.682 410.379C317.267 409.929 317.058 409.284 317.058 408.44C317.058 407.597 317.265 406.955 317.683 406.51C318.1 406.065 318.697 405.844 319.475 405.844C320.253 405.844 320.847 406.067 321.26 406.516C321.671 406.964 321.879 407.607 321.879 408.447ZM318.185 408.447C318.185 409.013 318.293 409.438 318.507 409.725C318.722 410.012 319.043 410.154 319.47 410.154C320.326 410.154 320.755 409.585 320.755 408.447C320.755 407.31 320.33 406.737 319.477 406.737C319.05 406.737 318.727 406.881 318.511 407.168C318.295 407.455 318.185 407.882 318.185 408.447Z" fill="#ACBCF8"/>
<path d="M327.42 410.984H326.055L323.854 407.156H323.822C323.866 407.833 323.888 408.315 323.888 408.602V410.984H322.929V405.924H324.283L326.481 409.715H326.505C326.47 409.057 326.454 408.593 326.454 408.32V405.924H327.42V410.984Z" fill="#ACBCF8"/>
<path d="M329.747 410.984H328.69V405.924H331.592V406.803H329.747V408.107H331.464V408.983H329.747V410.984Z" fill="#ACBCF8"/>
<path d="M332.585 410.984V405.924H333.657V410.984H332.585Z" fill="#ACBCF8"/>
<path d="M336.001 409.043V410.986H334.929V405.926H336.403C337.091 405.926 337.6 406.052 337.929 406.302C338.259 406.551 338.424 406.933 338.424 407.443C338.424 407.741 338.342 408.005 338.178 408.237C338.014 408.469 337.782 408.65 337.481 408.783C338.243 409.921 338.739 410.656 338.97 410.988H337.779L336.57 409.045H335.999L336.001 409.043ZM336.001 408.171H336.347C336.685 408.171 336.937 408.115 337.098 408.001C337.259 407.888 337.341 407.711 337.341 407.468C337.341 407.225 337.258 407.057 337.093 406.956C336.928 406.855 336.673 406.803 336.325 406.803H335.999V408.17L336.001 408.171Z" fill="#ACBCF8"/>
<path d="M341.751 410.984L340.534 407.014H340.502C340.546 407.822 340.567 408.361 340.567 408.63V410.984H339.608V405.924H341.069L342.267 409.795H342.288L343.559 405.924H345.02V410.984H344.02V408.588C344.02 408.474 344.02 408.345 344.025 408.196C344.029 408.049 344.045 407.656 344.071 407.019H344.039L342.735 410.982H341.751V410.984Z" fill="#ACBCF8"/>
<path d="M351.635 407.503C351.635 408.047 351.465 408.464 351.124 408.753C350.784 409.042 350.3 409.185 349.673 409.185H349.212V410.986H348.14V405.926H349.756C350.369 405.926 350.837 406.059 351.156 406.323C351.475 406.587 351.635 406.98 351.635 407.505V407.503ZM349.21 408.306H349.563C349.893 408.306 350.139 408.241 350.304 408.111C350.467 407.982 350.55 407.79 350.55 407.542C350.55 407.294 350.481 407.104 350.345 406.986C350.208 406.865 349.992 406.805 349.699 406.805H349.212V408.308L349.21 408.306Z" fill="#ACBCF8"/>
<path d="M355.687 410.984L355.32 409.779H353.475L353.108 410.984H351.952L353.739 405.902H355.05L356.844 410.984H355.688H355.687ZM355.063 408.88C354.724 407.788 354.533 407.171 354.49 407.028C354.448 406.884 354.418 406.771 354.398 406.689C354.322 406.985 354.104 407.716 353.744 408.88H355.063Z" fill="#ACBCF8"/>
<path d="M360.465 409.579C360.465 410.036 360.301 410.396 359.973 410.658C359.645 410.921 359.186 411.054 358.601 411.054C358.06 411.054 357.584 410.953 357.167 410.749V409.753C357.509 409.905 357.798 410.011 358.034 410.075C358.269 410.137 358.487 410.169 358.682 410.169C358.918 410.169 359.099 410.125 359.225 410.034C359.351 409.944 359.413 409.811 359.413 409.632C359.413 409.533 359.384 409.444 359.329 409.368C359.274 409.29 359.193 409.216 359.085 409.145C358.977 409.074 358.759 408.959 358.429 408.803C358.119 408.657 357.888 408.517 357.732 408.384C357.578 408.251 357.454 408.095 357.362 407.916C357.27 407.739 357.224 407.532 357.224 407.293C357.224 406.844 357.376 406.493 357.679 406.236C357.982 405.979 358.402 405.852 358.938 405.852C359.2 405.852 359.452 405.883 359.691 405.946C359.93 406.008 360.18 406.096 360.441 406.208L360.095 407.043C359.826 406.933 359.602 406.855 359.425 406.81C359.248 406.766 359.074 406.745 358.904 406.745C358.7 406.745 358.546 406.793 358.436 406.887C358.328 406.982 358.273 407.105 358.273 407.257C358.273 407.353 358.294 407.434 358.339 407.505C358.383 407.576 358.452 407.643 358.548 407.709C358.643 407.775 358.87 407.893 359.228 408.064C359.702 408.29 360.026 408.517 360.201 408.744C360.377 408.971 360.464 409.251 360.464 409.581L360.465 409.579Z" fill="#ACBCF8"/>
<path d="M364.372 409.579C364.372 410.036 364.207 410.396 363.879 410.658C363.549 410.921 363.092 411.054 362.507 411.054C361.967 411.054 361.49 410.953 361.073 410.749V409.753C361.415 409.905 361.704 410.011 361.94 410.075C362.176 410.137 362.394 410.169 362.589 410.169C362.824 410.169 363.005 410.125 363.131 410.034C363.257 409.944 363.319 409.811 363.319 409.632C363.319 409.533 363.291 409.444 363.236 409.368C363.181 409.29 363.099 409.216 362.991 409.145C362.883 409.074 362.665 408.959 362.335 408.803C362.025 408.657 361.795 408.517 361.639 408.384C361.484 408.251 361.36 408.095 361.268 407.916C361.176 407.739 361.13 407.532 361.13 407.293C361.13 406.844 361.282 406.493 361.585 406.236C361.889 405.979 362.309 405.852 362.844 405.852C363.106 405.852 363.358 405.883 363.597 405.946C363.836 406.008 364.086 406.096 364.347 406.208L364.001 407.043C363.732 406.933 363.509 406.855 363.331 406.81C363.154 406.766 362.98 406.745 362.81 406.745C362.606 406.745 362.452 406.793 362.342 406.887C362.234 406.982 362.179 407.105 362.179 407.257C362.179 407.353 362.201 407.434 362.245 407.505C362.289 407.576 362.358 407.643 362.454 407.709C362.55 407.775 362.777 407.893 363.135 408.064C363.608 408.29 363.932 408.517 364.108 408.744C364.283 408.971 364.37 409.251 364.37 409.581L364.372 409.579Z" fill="#ACBCF8"/>
<path d="M370.219 410.984H368.997L368.311 408.325C368.287 408.232 368.242 408.035 368.182 407.739C368.12 407.443 368.086 407.244 368.076 407.141C368.061 407.266 368.028 407.466 367.971 407.742C367.916 408.019 367.874 408.216 367.843 408.333L367.161 410.984H365.943L364.651 405.924H365.708L366.355 408.687C366.468 409.197 366.55 409.639 366.601 410.013C366.615 409.882 366.647 409.678 366.697 409.401C366.746 409.127 366.792 408.912 366.837 408.76L367.574 405.924H368.588L369.325 408.76C369.357 408.887 369.398 409.08 369.446 409.341C369.494 409.602 369.531 409.825 369.556 410.013C369.579 409.832 369.616 409.609 369.666 409.339C369.717 409.07 369.763 408.854 369.804 408.687L370.447 405.924H371.504L370.215 410.984H370.219Z" fill="#ACBCF8"/>
<path d="M376.738 408.447C376.738 409.286 376.531 409.929 376.114 410.379C375.699 410.83 375.104 411.055 374.327 411.055C373.551 411.055 372.957 410.83 372.541 410.379C372.126 409.929 371.917 409.284 371.917 408.44C371.917 407.597 372.124 406.955 372.543 406.51C372.959 406.065 373.556 405.844 374.335 405.844C375.113 405.844 375.706 406.067 376.119 406.516C376.531 406.964 376.738 407.607 376.738 408.447ZM373.044 408.447C373.044 409.013 373.152 409.438 373.367 409.725C373.581 410.012 373.902 410.154 374.329 410.154C375.185 410.154 375.614 409.585 375.614 408.447C375.614 407.31 375.189 406.737 374.336 406.737C373.909 406.737 373.587 406.881 373.37 407.168C373.154 407.455 373.044 407.882 373.044 408.447Z" fill="#ACBCF8"/>
<path d="M378.86 409.043V410.986H377.788V405.926H379.263C379.95 405.926 380.459 406.052 380.789 406.302C381.118 406.551 381.283 406.933 381.283 407.443C381.283 407.741 381.202 408.005 381.037 408.237C380.874 408.469 380.642 408.65 380.34 408.783C381.102 409.921 381.599 410.656 381.829 410.988H380.638L379.429 409.045H378.859L378.86 409.043ZM378.86 408.171H379.206C379.545 408.171 379.796 408.115 379.958 408.001C380.119 407.888 380.2 407.711 380.2 407.468C380.2 407.225 380.117 407.057 379.952 406.956C379.787 406.855 379.532 406.803 379.185 406.803H378.859V408.17L378.86 408.171Z" fill="#ACBCF8"/>
<path d="M386.667 408.405C386.667 409.238 386.429 409.876 385.956 410.319C385.483 410.763 384.797 410.984 383.902 410.984H382.468V405.924H384.056C384.882 405.924 385.523 406.142 385.981 406.578C386.438 407.014 386.667 407.624 386.667 408.405ZM385.552 408.434C385.552 407.347 385.071 406.803 384.113 406.803H383.542V410.098H384.003C385.036 410.098 385.554 409.543 385.554 408.434H385.552Z" fill="#ACBCF8"/>
<path d="M309.698 375.234H497.042" stroke="#829CF8" stroke-width="1.94965" stroke-miterlimit="10"/>
<path d="M309.698 416.089H497.042" stroke="#829CF8" stroke-width="1.94965" stroke-miterlimit="10"/>
<path d="M302.362 329.629V334.483H299.679V321.83H303.365C305.085 321.83 306.357 322.144 307.181 322.769C308.006 323.395 308.418 324.347 308.418 325.621C308.418 326.366 308.213 327.027 307.803 327.608C307.394 328.188 306.814 328.641 306.065 328.971C307.968 331.816 309.209 333.654 309.787 334.483H306.809L303.789 329.629H302.36H302.362ZM302.362 327.449H303.227C304.076 327.449 304.702 327.307 305.106 327.025C305.51 326.743 305.712 326.298 305.712 325.692C305.712 325.086 305.506 324.666 305.093 324.411C304.68 324.157 304.042 324.03 303.176 324.03H302.362V327.449Z" fill="#0F31AC"/>
<path d="M318.668 334.485H311.382V321.832H318.668V324.03H314.063V326.807H318.347V329.005H314.063V332.268H318.668V334.484V334.485Z" fill="#0F31AC"/>
<path d="M328.777 330.971C328.777 332.114 328.366 333.013 327.544 333.67C326.721 334.328 325.578 334.657 324.112 334.657C322.762 334.657 321.567 334.404 320.53 333.895V331.403C321.385 331.784 322.106 332.052 322.698 332.208C323.29 332.364 323.831 332.442 324.321 332.442C324.91 332.442 325.362 332.33 325.676 332.105C325.989 331.88 326.147 331.545 326.147 331.102C326.147 330.854 326.078 330.634 325.94 330.439C325.801 330.246 325.598 330.06 325.33 329.881C325.062 329.702 324.515 329.416 323.69 329.025C322.918 328.661 322.338 328.312 321.952 327.977C321.565 327.642 321.257 327.254 321.027 326.809C320.796 326.364 320.681 325.845 320.681 325.251C320.681 324.133 321.06 323.252 321.819 322.612C322.577 321.972 323.627 321.651 324.965 321.651C325.622 321.651 326.25 321.729 326.847 321.885C327.444 322.041 328.068 322.261 328.721 322.543L327.856 324.629C327.18 324.353 326.622 324.159 326.181 324.049C325.739 323.94 325.305 323.885 324.878 323.885C324.369 323.885 323.981 324.003 323.71 324.239C323.439 324.477 323.304 324.785 323.304 325.164C323.304 325.4 323.359 325.607 323.469 325.783C323.579 325.958 323.753 326.129 323.992 326.293C324.231 326.458 324.798 326.754 325.692 327.18C326.874 327.745 327.686 328.312 328.123 328.879C328.561 329.448 328.781 330.145 328.781 330.969L328.777 330.971Z" fill="#0F31AC"/>
<path d="M338.356 334.485H331.069V321.832H338.356V324.03H333.751V326.807H338.035V329.005H333.751V332.268H338.356V334.484V334.485Z" fill="#0F31AC"/>
<path d="M345.879 334.485H343.196V324.065H339.761V321.832H349.316V324.065H345.881V334.485H345.879Z" fill="#0F31AC"/>
<path d="M359.802 327.041L362.441 321.832H365.332L361.135 329.56V334.484H358.47V329.647L354.272 321.832H357.181L359.802 327.041Z" fill="#0F31AC"/>
<path d="M378.411 328.14C378.411 330.235 377.892 331.845 376.853 332.97C375.815 334.096 374.326 334.657 372.387 334.657C370.448 334.657 368.959 334.096 367.92 332.97C366.882 331.845 366.362 330.23 366.362 328.124C366.362 326.019 366.883 324.409 367.924 323.3C368.964 322.189 370.458 321.634 372.403 321.634C374.347 321.634 375.834 322.194 376.864 323.312C377.894 324.432 378.409 326.042 378.409 328.142L378.411 328.14ZM369.177 328.14C369.177 329.555 369.445 330.618 369.982 331.334C370.519 332.05 371.32 332.407 372.387 332.407C374.528 332.407 375.598 330.985 375.598 328.14C375.598 325.296 374.533 323.865 372.404 323.865C371.337 323.865 370.533 324.225 369.99 324.943C369.448 325.661 369.177 326.728 369.177 328.14Z" fill="#0F31AC"/>
<path d="M391.331 321.832V330.019C391.331 330.953 391.121 331.774 390.703 332.477C390.285 333.181 389.681 333.721 388.89 334.095C388.1 334.471 387.165 334.657 386.086 334.657C384.459 334.657 383.195 334.241 382.295 333.406C381.395 332.573 380.944 331.431 380.944 329.983V321.83H383.619V329.576C383.619 330.551 383.816 331.267 384.207 331.722C384.599 332.178 385.248 332.406 386.155 332.406C387.063 332.406 387.669 332.178 388.064 331.719C388.459 331.26 388.656 330.54 388.656 329.56V321.832H391.331Z" fill="#0F31AC"/>
<path d="M397.112 329.629V334.483H394.429V321.83H398.115C399.835 321.83 401.107 322.144 401.931 322.769C402.756 323.395 403.168 324.347 403.168 325.621C403.168 326.366 402.963 327.027 402.553 327.608C402.144 328.188 401.564 328.641 400.815 328.971C402.718 331.816 403.959 333.654 404.537 334.483H401.559L398.539 329.629H397.11H397.112ZM397.112 327.449H397.977C398.826 327.449 399.452 327.307 399.856 327.025C400.26 326.743 400.462 326.298 400.462 325.692C400.462 325.086 400.256 324.666 399.843 324.411C399.43 324.157 398.792 324.03 397.926 324.03H397.112V327.449Z" fill="#0F31AC"/>
<path d="M419.473 325.777C419.473 327.139 419.048 328.181 418.197 328.902C417.346 329.624 416.136 329.983 414.567 329.983H413.417V334.484H410.733V321.83H414.775C416.309 321.83 417.476 322.16 418.275 322.821C419.074 323.482 419.473 324.468 419.473 325.776V325.777ZM413.417 327.786H414.3C415.124 327.786 415.742 327.623 416.152 327.296C416.561 326.97 416.767 326.495 416.767 325.873C416.767 325.251 416.595 324.78 416.251 324.48C415.907 324.181 415.37 324.03 414.636 324.03H413.417V327.786Z" fill="#0F31AC"/>
<path d="M429.609 334.485L428.691 331.474H424.077L423.159 334.485H420.269L424.735 321.78H428.016L432.498 334.485H429.607H429.609ZM428.051 329.223C427.202 326.493 426.725 324.951 426.619 324.593C426.513 324.235 426.437 323.953 426.39 323.744C426.201 324.483 425.655 326.309 424.755 329.223H428.051Z" fill="#0F31AC"/>
<path d="M441.559 330.971C441.559 332.114 441.147 333.013 440.325 333.67C439.503 334.328 438.359 334.657 436.894 334.657C435.543 334.657 434.348 334.404 433.312 333.895V331.403C434.166 331.784 434.887 332.052 435.479 332.208C436.071 332.364 436.612 332.442 437.103 332.442C437.691 332.442 438.143 332.33 438.457 332.105C438.771 331.88 438.928 331.545 438.928 331.102C438.928 330.854 438.859 330.634 438.721 330.439C438.583 330.246 438.379 330.06 438.111 329.881C437.844 329.702 437.296 329.416 436.472 329.025C435.699 328.661 435.119 328.312 434.733 327.977C434.347 327.642 434.038 327.254 433.808 326.809C433.577 326.364 433.462 325.845 433.462 325.251C433.462 324.133 433.841 323.252 434.6 322.612C435.359 321.972 436.408 321.651 437.746 321.651C438.404 321.651 439.031 321.729 439.628 321.885C440.226 322.041 440.85 322.261 441.502 322.543L440.637 324.629C439.962 324.353 439.403 324.159 438.962 324.049C438.521 323.94 438.086 323.885 437.659 323.885C437.151 323.885 436.762 324.003 436.491 324.239C436.22 324.477 436.085 324.785 436.085 325.164C436.085 325.4 436.14 325.607 436.25 325.783C436.36 325.958 436.534 326.129 436.773 326.293C437.012 326.458 437.579 326.754 438.473 327.18C439.655 327.745 440.467 328.312 440.905 328.879C441.342 329.448 441.562 330.145 441.562 330.969L441.559 330.971Z" fill="#0F31AC"/>
<path d="M451.32 330.971C451.32 332.114 450.909 333.013 450.087 333.67C449.264 334.328 448.121 334.657 446.655 334.657C445.305 334.657 444.11 334.404 443.073 333.895V331.403C443.928 331.784 444.649 332.052 445.241 332.208C445.833 332.364 446.373 332.442 446.864 332.442C447.453 332.442 447.905 332.33 448.219 332.105C448.532 331.88 448.69 331.545 448.69 331.102C448.69 330.854 448.621 330.634 448.483 330.439C448.344 330.246 448.141 330.06 447.873 329.881C447.605 329.702 447.058 329.416 446.233 329.025C445.461 328.661 444.881 328.312 444.495 327.977C444.108 327.642 443.8 327.254 443.57 326.809C443.339 326.364 443.224 325.845 443.224 325.251C443.224 324.133 443.603 323.252 444.362 322.612C445.12 321.972 446.17 321.651 447.508 321.651C448.165 321.651 448.793 321.729 449.39 321.885C449.987 322.041 450.611 322.261 451.264 322.543L450.399 324.629C449.723 324.353 449.165 324.159 448.724 324.049C448.282 323.94 447.848 323.885 447.421 323.885C446.912 323.885 446.524 324.003 446.253 324.239C445.982 324.477 445.847 324.785 445.847 325.164C445.847 325.4 445.902 325.607 446.012 325.783C446.122 325.958 446.295 326.129 446.535 326.293C446.774 326.458 447.341 326.754 448.235 327.18C449.417 327.745 450.228 328.312 450.666 328.879C451.104 329.448 451.324 330.145 451.324 330.969L451.32 330.971Z" fill="#0F31AC"/>
<path d="M465.939 334.485H462.884L461.17 327.839C461.106 327.603 460.998 327.114 460.845 326.371C460.693 325.63 460.604 325.132 460.581 324.879C460.546 325.191 460.461 325.69 460.323 326.38C460.184 327.069 460.078 327.56 460.002 327.856L458.297 334.485H455.25L452.022 321.832H454.662L456.28 328.737C456.562 330.012 456.767 331.118 456.895 332.052C456.93 331.722 457.008 331.213 457.132 330.524C457.256 329.834 457.373 329.299 457.483 328.918L459.327 321.83H461.863L463.706 328.918C463.786 329.235 463.889 329.721 464.009 330.371C464.13 331.024 464.222 331.584 464.286 332.05C464.344 331.6 464.436 331.04 464.562 330.366C464.69 329.694 464.805 329.15 464.908 328.735L466.517 321.83H469.156L465.938 334.483L465.939 334.485Z" fill="#0F31AC"/>
<path d="M482.235 328.14C482.235 330.235 481.716 331.845 480.677 332.97C479.639 334.096 478.15 334.657 476.211 334.657C474.272 334.657 472.783 334.096 471.744 332.97C470.706 331.845 470.187 330.23 470.187 328.124C470.187 326.019 470.708 324.409 471.748 323.3C472.79 322.189 474.283 321.634 476.227 321.634C478.171 321.634 479.658 322.194 480.688 323.312C481.718 324.432 482.234 326.042 482.234 328.142L482.235 328.14ZM473.001 328.14C473.001 329.555 473.269 330.618 473.806 331.334C474.343 332.05 475.144 332.407 476.211 332.407C478.352 332.407 479.423 330.985 479.423 328.14C479.423 325.296 478.357 323.865 476.229 323.865C475.162 323.865 474.357 324.225 473.815 324.943C473.272 325.661 473.001 326.728 473.001 328.14Z" fill="#0F31AC"/>
<path d="M487.542 329.629V334.483H484.858V321.83H488.545C490.264 321.83 491.537 322.144 492.361 322.769C493.185 323.395 493.598 324.347 493.598 325.621C493.598 326.366 493.393 327.027 492.983 327.608C492.574 328.188 491.994 328.641 491.244 328.971C493.148 331.816 494.389 333.654 494.966 334.483H491.989L488.969 329.629H487.54H487.542ZM487.542 327.449H488.407C489.256 327.449 489.881 327.307 490.285 327.025C490.69 326.743 490.892 326.298 490.892 325.692C490.892 325.086 490.686 324.666 490.273 324.411C489.86 324.157 489.222 324.03 488.355 324.03H487.542V327.449Z" fill="#0F31AC"/>
<path d="M507.058 328.037C507.058 330.12 506.466 331.715 505.28 332.823C504.094 333.931 502.382 334.485 500.144 334.485H496.562V321.832H500.534C502.598 321.832 504.202 322.378 505.346 323.468C506.489 324.558 507.06 326.082 507.06 328.037H507.058ZM504.27 328.106C504.27 325.389 503.07 324.03 500.67 324.03H499.241V332.268H500.392C502.976 332.268 504.27 330.88 504.27 328.105V328.106Z" fill="#0F31AC"/>
<path d="M515.077 330.287V329.647C515.077 329.094 515.196 328.612 515.432 328.202C515.667 327.793 516.102 327.357 516.729 326.896C517.335 326.464 517.734 326.111 517.927 325.84C518.12 325.569 518.218 325.265 518.218 324.931C518.218 324.555 518.08 324.269 517.803 324.074C517.527 323.878 517.14 323.78 516.644 323.78C515.779 323.78 514.792 324.064 513.684 324.629L512.741 322.735C514.028 322.013 515.393 321.653 516.835 321.653C518.025 321.653 518.969 321.939 519.67 322.509C520.371 323.08 520.721 323.842 520.721 324.794C520.721 325.429 520.577 325.976 520.288 326.439C519.999 326.9 519.452 327.419 518.643 327.997C518.09 328.406 517.739 328.718 517.592 328.931C517.445 329.145 517.371 329.424 517.371 329.771V330.29H515.077V330.287ZM514.801 333.247C514.801 332.763 514.93 332.396 515.191 332.148C515.449 331.9 515.829 331.776 516.325 331.776C516.821 331.776 517.174 331.903 517.436 332.157C517.699 332.41 517.83 332.773 517.83 333.247C517.83 333.72 517.697 334.062 517.431 334.324C517.165 334.587 516.796 334.718 516.323 334.718C515.85 334.718 515.464 334.59 515.198 334.333C514.932 334.076 514.799 333.715 514.799 333.247H514.801Z" fill="#0F31AC"/>
<path opacity="0.1" d="M311.233 491.503C310.778 490.62 310.097 489.865 309.285 489.216C308.996 488.984 308.69 488.768 308.371 488.564L320.421 456.801H279.078C272.618 445.489 266.223 436.026 259.018 428.426C256.661 422.342 254.67 420.349 253.44 419.734L253.46 419.516L240.3 413.93C239.339 413.331 238.449 412.753 237.618 412.2C235.872 411.037 234.38 409.975 233.015 409.02C233.011 408.816 233.02 408.611 233.052 408.407L233.244 407.152C233.891 407.368 234.249 407.432 234.249 407.432C235.502 407.647 236.62 407.184 237.618 406.241C241.29 402.772 243.32 392.799 244.296 386.145C244.314 386.303 244.319 386.395 244.319 386.395C251.122 369.786 243.107 366.66 237.618 366.291C235.223 366.13 233.311 366.493 233.311 366.493C232.301 365.83 231.259 365.33 230.216 364.96C229.553 364.724 228.891 364.543 228.229 364.412V502.55H311.448L310.187 501.152L309.783 500.703C313.752 497.284 311.233 491.503 311.233 491.503Z" fill="black"/>
<path d="M296.681 566.04C296.681 566.04 296.429 568.039 295.446 570.953C292.631 579.291 283.822 595.117 257.761 592.951H153.283C140.693 592.951 129.506 588.195 120.823 580.273C120.378 579.87 119.94 579.455 119.509 579.034C107.342 567.134 100.513 548.798 102.367 528.814L105.699 492.841C106.101 488.517 106.774 484.274 107.705 480.135C107.71 480.11 107.717 480.082 107.721 480.057C107.769 479.841 107.82 479.621 107.873 479.405C107.966 478.999 108.063 478.595 108.164 478.191C112.964 458.652 123.476 441.488 137.762 428.466C155.519 412.284 179.105 402.498 204.806 402.498H206.235C207.004 402.498 207.74 402.505 208.443 402.523C218.619 402.753 222.401 404.646 227.463 408.122C230.345 410.096 233.638 412.585 238.761 415.568C253.58 424.203 264.317 438.258 275.318 457.668C278.381 463.075 281.469 468.898 284.67 475.135C285.033 475.844 305.235 507.217 296.681 566.042V566.04Z" fill="#ACBCF8"/>
<g opacity="0.1">
<path opacity="0.13" d="M217.832 378.3C217.761 378.606 217.68 378.837 217.593 378.972L217.832 378.3Z" fill="black"/>
</g>
<path opacity="0.1" d="M217.59 378.972C217.677 378.835 217.759 378.605 217.829 378.3L217.59 378.972ZM284.671 475.134C281.47 468.897 278.384 463.074 275.319 457.667H255.461L254.745 454.737L256.732 454.022C251.833 427.401 247.071 421.717 244.832 420.602L244.853 420.384L230.662 414.356L225.871 412.981L225.109 411.963C224.542 411.205 224.3 410.23 224.446 409.273L224.637 408.018C225.284 408.234 225.644 408.3 225.644 408.3C226.287 408.41 226.892 408.34 227.466 408.122C222.404 404.647 218.622 402.754 208.446 402.523C207.025 406.291 203.299 409.149 201.596 410.299L183.641 421.013C183.427 421.158 183.227 421.323 183.044 421.504C179.978 423.071 173.517 429.517 169.613 455.974L170.676 456.38L168.092 470.081C167.392 473.808 169.537 477.48 173.053 478.581L180.836 482.601L181.025 498.407C181.025 498.407 179.019 512.721 183.411 515.587C183.982 519.781 184.682 523.676 185.424 526.28C189.122 539.251 203.37 546.292 216.83 545.392C231.406 544.417 254.451 544.414 261.216 541.964C263.379 541.181 284.55 561.688 295.449 570.955C296.432 568.042 296.684 566.042 296.684 566.042C305.238 507.218 285.037 475.844 284.672 475.135L284.671 475.134Z" fill="black"/>
<path d="M203.602 517.327C207.296 530.301 221.548 537.339 235.007 536.441C249.584 535.466 266.663 531.499 273.426 529.051C302.738 518.44 295.484 500.067 295.484 500.067C292.529 496.196 287.63 493.562 282.754 492.375L236.636 490.897C236.057 490.757 235.458 490.75 234.876 490.875L200.906 484.989C199.082 485.388 201.119 508.603 203.604 517.329L203.602 517.327Z" fill="#040C2B"/>
<path d="M346.077 569.366L362.358 589.196L372.635 576.435L352.842 559.627L346.077 569.366Z" fill="#DB965F"/>
<path d="M365.271 594.679C365.271 594.679 362.848 597.024 357.658 590.851C357.658 590.851 348.856 582.183 354.057 579.325C354.057 579.325 362.639 581.168 362.791 572.067L363.202 568.196C363.202 568.196 378.493 564.241 381.269 561C381.573 560.645 381.9 560.31 382.266 560.019C384.524 558.228 391.251 553.703 392.731 561.98C392.731 561.98 396.086 570.5 365.273 594.679H365.271Z" fill="#040C2B"/>
<path d="M262.772 507.577C263.49 507.735 280.775 516.064 280.775 516.064L344.431 571.363C346.047 572.871 348.52 572.891 350.062 571.409L357.554 564.209C359.117 562.708 359.167 560.198 357.667 558.532L305.936 501.152L299.334 493.829C296.227 490.381 292.148 484.243 287.903 483.184L262.772 507.577Z" fill="#040C2B"/>
<path d="M205.077 409.987L205.152 424.116L225.566 427.948L237.424 421.722L232.294 414.878L229.458 411.096C228.891 410.337 228.65 409.363 228.796 408.406L231.27 392.184L211.382 383.005L213.058 395.896L213.333 398.012C213.934 404.877 205.077 409.987 205.077 409.987Z" fill="#C9885B"/>
<path opacity="0.15" d="M211.382 383.007L213.259 397.615C220.231 410.508 229.055 413.526 232.296 414.88L229.46 411.098C228.893 410.339 228.652 409.364 228.798 408.407L231.272 392.186L211.384 383.007H211.382Z" fill="black"/>
<path d="M240.8 379.813C240.8 379.813 238.399 408.87 229.992 407.432C229.992 407.432 220.611 405.756 210.854 390.589L208.526 384.443L215.432 376.619L240.798 379.813H240.8Z" fill="#DB965F"/>
<path d="M219.639 384.442C219.639 384.442 219.339 389.391 218.437 390.828H217.087C217.087 390.828 217.237 385.72 213.334 384.602C213.334 384.602 208.531 383.804 211.232 390.828L212.959 393.781L213.361 398.577C213.361 398.577 207.93 388.272 207.03 382.046C207.03 382.046 206.991 381.819 206.945 381.415C205.71 370.261 215.894 361.383 225.961 364.956C227.003 365.327 228.045 365.827 229.056 366.49C229.056 366.49 249.83 362.546 240.064 386.392C240.064 386.392 239.823 381.351 235.626 380.759C235.302 380.713 234.394 379.774 234.073 379.705C232.749 379.421 230.729 378.416 227.28 379.632C227.28 379.632 223.359 384.928 219.637 384.439L219.639 384.442Z" fill="black"/>
<path d="M189.778 525.411C193.472 538.385 207.724 545.423 221.183 544.524C235.76 543.55 252.838 539.583 259.602 537.135C288.914 526.524 281.66 508.151 281.66 508.151C278.705 504.28 273.806 501.646 268.93 500.459L222.812 498.981C222.232 498.841 221.633 498.834 221.052 498.959L187.082 493.073C185.258 493.472 187.295 516.687 189.78 525.413L189.778 525.411Z" fill="#040C2B"/>
<path d="M337.952 577.146L356.763 594.595L365.219 580.561L343.337 566.582L337.952 577.146Z" fill="#DB965F"/>
<path d="M360.386 599.633C360.386 599.633 358.304 602.284 352.325 596.868C352.325 596.868 342.433 589.47 347.199 585.934C347.199 585.934 355.952 586.6 354.872 577.561L354.757 573.669C354.757 573.669 369.372 567.685 371.685 564.098C371.939 563.704 372.217 563.328 372.541 562.992C374.537 560.911 380.588 555.519 383.174 563.52C383.174 563.52 387.649 571.508 360.386 599.631V599.633Z" fill="#040C2B"/>
<path d="M247.058 527.181C247.791 527.24 266.042 533.156 266.042 533.156L336.587 579.345C338.392 580.621 340.846 580.308 342.174 578.629L348.624 570.483C349.969 568.785 349.678 566.291 347.968 564.843L288.956 514.291L281.425 507.465C277.88 504.47 273.009 500.092 268.662 499.613L247.058 527.18V527.181Z" fill="#040C2B"/>
<path d="M239.701 443.842L234.304 470.096L242.813 479.244L261.648 464.304L259.096 453.873L256.044 441.397L249.683 442.349L246.572 442.814L239.701 443.842Z" fill="#DB965F"/>
<path d="M286.403 484.844C286.403 484.844 291.069 482.211 298.453 481.906C299.123 482.914 298.552 484.316 297.351 484.609L293.822 485.47C293.822 485.47 304.288 486.293 306.977 491.503C306.977 491.503 310.303 499.139 303.292 502.049C303.292 502.049 297.765 506.61 284.685 497.471L237.433 475.561L249.448 467.305L286.401 484.843L286.403 484.844Z" fill="#DB965F"/>
<path d="M245.7 458.676L250.064 457.111L259.094 453.873L261.083 453.159C256.12 426.191 251.299 420.708 249.096 419.694C248.302 419.329 247.848 419.543 247.848 419.543L246.57 442.813L245.698 458.674L245.7 458.676Z" fill="white"/>
<path opacity="0.15" d="M239.702 443.841L248.286 467.348L250.065 457.111L249.684 442.349L249.099 419.694C248.305 419.329 247.852 419.543 247.852 419.543L246.574 442.813L239.702 443.841Z" fill="black"/>
<path d="M187.994 420.147C186.872 420.906 186.167 422.172 186.098 423.556L185.02 444.725L184.806 448.944C184.8 449.048 184.799 449.155 184.8 449.259L185.378 497.538C185.378 497.538 182.016 521.503 193.503 513.631C213.246 500.103 237.085 499.773 247.134 497.391C249.194 496.903 250.58 494.911 250.378 492.738L247.615 463.176C247.597 462.988 247.592 462.801 247.597 462.611L248.903 422.693L249.208 419.517L235.015 413.49L230.226 412.113C230.226 412.113 228.76 417.255 226.424 419.848C224.488 421.996 220.91 421.459 218.31 420.209C212.06 417.209 209.106 414.384 207.764 412.143L205.949 409.43L187.994 420.144V420.147Z" fill="white"/>
<path opacity="0.15" d="M184.796 449.102L185.641 492.416L189.457 484.875L194.713 444.022L185.017 444.726L184.796 449.102Z" fill="black"/>
<path d="M177.405 477.712L212.514 495.849C216.052 497.676 220.111 498.176 224.008 497.357C228.62 496.389 231.208 497.394 233.693 499.452C236.217 501.54 240.382 500.386 240.288 497.112C240.21 494.388 238.374 491.155 238.374 491.155C234.896 486.299 225.607 485.764 225.607 485.764L218.26 486.139L187.633 467.83C187.436 467.767 187.328 467.552 187.39 467.348L192.176 451.696L177.032 444.876L172.444 469.211C171.744 472.939 173.888 476.611 177.405 477.71V477.712Z" fill="#DB965F"/>
<path d="M189.113 420.138C189.113 420.138 179.223 419.489 173.964 455.105L190.603 461.435C190.603 461.435 205.477 422.339 189.113 420.138Z" fill="white"/>
<path d="M242.168 498.97L216.222 498.85V502.21H240.47L242.168 498.97Z" fill="#0F31AC"/>
<path d="M256.516 456.801H316.166L299.555 500.588L240.28 502.21L256.516 456.801Z" fill="#0F31AC"/>
<path d="M300.246 498.771L298.235 502.094H240.472L241.512 498.771H300.246Z" fill="#0B2581"/>
<path d="M150.663 479.545C206.421 481.142 184.877 546.505 256.148 547.489C256.148 547.489 140.3 625.335 150.663 479.545Z" fill="#9CB1FE"/>
<path d="M655.819 555.248C653.368 538.22 637.578 526.404 620.55 528.855C608.214 530.631 598.613 539.408 595.191 550.583L553.406 556.597C552.151 556.778 551.27 557.864 551.437 559.023L551.797 561.519C551.942 562.531 551.173 563.477 550.078 563.635L544.771 564.399C543.676 564.557 542.671 563.864 542.525 562.853L541.997 559.185C541.923 558.672 541.416 558.323 540.861 558.403L538.81 558.699C538.256 558.779 537.867 559.257 537.94 559.769L538.16 561.295C538.305 562.308 537.536 563.254 536.442 563.412L531.136 564.176C530.04 564.333 529.035 563.64 528.89 562.628L528.665 561.065C528.594 560.574 528.107 560.237 527.575 560.315L525.443 560.622C524.911 560.698 524.537 561.159 524.608 561.65L525.141 565.356C525.287 566.368 524.518 567.315 523.424 567.472L518.117 568.236C517.022 568.394 516.017 567.701 515.872 566.691L515.512 564.19C515.345 563.032 514.197 562.242 512.946 562.421C505.859 563.44 500.544 569.402 501.249 575.982C501.987 582.86 508.724 587.626 516.072 586.568L597.748 574.814C603.844 585.785 616.265 592.414 629.425 590.519C646.452 588.068 658.269 572.279 655.818 555.25L655.819 555.248ZM628.886 559.124C628.177 554.204 631.592 549.642 636.513 548.935C641.433 548.226 645.995 551.641 646.702 556.561C647.411 561.482 643.996 566.044 639.076 566.751C634.155 567.458 629.593 564.044 628.886 559.124Z" fill="#0B2581"/>
<path d="M653.87 555.248C651.419 538.22 635.629 526.404 618.601 528.855C606.265 530.631 596.664 539.408 593.241 550.583L551.457 556.597C550.202 556.778 549.321 557.864 549.488 559.023L549.848 561.519C549.993 562.531 549.224 563.477 548.128 563.635L542.822 564.399C541.726 564.557 540.721 563.864 540.576 562.853L540.048 559.185C539.973 558.672 539.467 558.323 538.912 558.403L536.861 558.699C536.306 558.779 535.918 559.257 535.991 559.769L536.211 561.295C536.356 562.308 535.587 563.254 534.493 563.412L529.187 564.176C528.091 564.333 527.086 563.64 526.941 562.628L526.716 561.065C526.645 560.574 526.157 560.237 525.626 560.315L523.494 560.622C522.962 560.698 522.588 561.159 522.659 561.65L523.192 565.356C523.338 566.368 522.568 567.315 521.475 567.472L516.168 568.236C515.073 568.394 514.068 567.701 513.923 566.691L513.563 564.19C513.396 563.032 512.248 562.242 510.996 562.421C503.91 563.44 498.595 569.402 499.3 575.982C500.037 582.86 506.774 587.626 514.123 586.568L595.799 574.814C601.894 585.785 614.315 592.414 627.476 590.519C644.503 588.068 656.32 572.279 653.868 555.25L653.87 555.248ZM626.937 559.124C626.228 554.204 629.643 549.642 634.563 548.935C639.484 548.226 644.046 551.641 644.753 556.561C645.462 561.482 642.047 566.044 637.126 566.751C632.206 567.458 627.644 564.044 626.937 559.124Z" fill="#0F31AC"/>
</svg>
