<svg width="755" height="501" viewBox="0 0 755 501" fill="none" xmlns="http://www.w3.org/2000/svg">
<path d="M0.103661 392.236C1.51914 405.191 18.8607 402.336 30.3542 412.003C41.8477 421.671 30.4606 434.878 56.8107 437.71C73.0399 439.455 71.8963 432.657 88.0327 449.344C102.24 464.034 104.887 439.808 120.781 443.641C141.287 448.587 142.844 408.216 123.96 400.364C105.076 392.513 95.8154 403.508 92.3515 386.549C88.8876 369.59 76.1631 363.224 60.0017 367.014C39.9984 371.706 42.8234 389.2 32.5189 379.578C22.214 369.956 -1.76878 375.102 0.103661 392.236Z" fill="#80B2FF"/>
<path d="M148.729 445.094C91.1017 400.395 23.3266 393.573 22.6448 393.508C20.0636 393.259 20.3618 390.154 22.943 390.403C23.6343 390.47 92.7522 397.566 151.085 442.812L148.729 445.094Z" fill="#005CEA"/>
<path d="M66.2003 347.764C62.8467 356.035 74.2306 359.945 78.0215 369.507C81.812 379.069 71.7143 387.206 86.6829 397.472C95.9022 403.794 99.7693 391.764 108.56 402.656C117.35 413.548 113.065 416.685 120.835 419.566C134.381 424.589 148.627 403.529 139.789 392.662C130.952 381.795 118.903 385.661 122.322 374.31C125.741 362.959 126.88 358.144 115.904 355.181C102.319 351.513 92.9451 359.807 89.8567 350.658C86.7686 341.509 70.636 336.823 66.2003 347.764Z" fill="#4D93FF"/>
<path d="M148.73 445.095L151.086 443.149C130.607 396.923 80.9628 354.34 80.567 354.076C78.8804 352.947 77.6928 354.722 79.3795 355.851C79.77 356.112 128.509 399.453 148.73 445.095Z" fill="#005CEA"/>
<path d="M719.035 174.056H693.012V141.914H719.035V174.056ZM694.391 172.676H717.656V143.293H694.391V172.676Z" fill="#80B2FF"/>
<path d="M714.511 147.653H701.764V149.654H714.511V147.653Z" fill="#0041A6"/>
<path d="M714.512 152.354H697.994V154.354H714.512V152.354Z" fill="#0041A6"/>
<path d="M714.512 157.055H697.994V159.055H714.512V157.055Z" fill="#0041A6"/>
<path d="M714.512 161.755H697.994V163.756H714.512V161.755Z" fill="#0041A6"/>
<path d="M714.512 166.455H697.994V168.456H714.512V166.455Z" fill="#0041A6"/>
<path d="M722.291 146.374H697.646V177.136H722.291V146.374Z" fill="#80B2FF"/>
<path d="M718.457 151.425H705.709V153.425H718.457V151.425Z" fill="#005CEA"/>
<path d="M718.457 156.125H701.939V158.126H718.457V156.125Z" fill="#005CEA"/>
<path d="M718.457 160.825H701.939V162.826H718.457V160.825Z" fill="#005CEA"/>
<path d="M718.457 165.526H701.939V167.527H718.457V165.526Z" fill="#005CEA"/>
<path d="M718.457 170.227H701.939V172.227H718.457V170.227Z" fill="#005CEA"/>
<path d="M580.043 53.3545H577.744V55.0784H580.043V53.3545Z" fill="#97C6FF"/>
<path d="M580.043 119.952H577.744V116.348H580.043V119.952ZM580.043 112.744H577.744V109.14H580.043V112.744ZM580.043 105.536H577.744V101.932H580.043V105.536ZM580.043 98.3279H577.744V94.7239H580.043V98.3279ZM580.043 91.1199H577.744V87.5158H580.043V91.1199ZM580.043 83.9118H577.744V80.3078H580.043V83.9118ZM580.043 76.7038H577.744V73.0997H580.043V76.7038ZM580.043 69.4957H577.744V65.8917H580.043V69.4957ZM580.043 62.2876H577.744V58.6836H580.043V62.2876Z" fill="#97C6FF"/>
<path d="M580.043 123.556H577.744V125.28H580.043V123.556Z" fill="#97C6FF"/>
<path d="M561.26 53.3545H558.961V55.0784H561.26V53.3545Z" fill="#97C6FF"/>
<path d="M77.1442 207.446H74.8457V203.992H77.1442V207.446ZM77.1881 200.623L74.8959 200.455C74.9862 199.229 75.1998 198.01 75.5313 196.832L77.7441 197.455C77.454 198.485 77.2671 199.551 77.1881 200.623ZM78.9232 194.464L76.8808 193.41C77.4427 192.321 78.1171 191.284 78.8856 190.328L80.678 191.767C80.005 192.604 79.4146 193.512 78.9232 194.464ZM82.9329 189.471L81.4616 187.705C82.4046 186.919 83.4296 186.226 84.5078 185.645L85.5984 187.668C84.655 188.176 83.7583 188.783 82.9329 189.471ZM88.5685 186.434L87.9054 184.233C89.0771 183.88 90.292 183.644 91.5161 183.532L91.7258 185.821C90.6548 185.92 89.5927 186.126 88.5685 186.434ZM540.642 185.754H537.188V183.455H540.642V185.754ZM533.734 185.754H530.279V183.455H533.734V185.754ZM526.825 185.754H523.371V183.455H526.825V185.754ZM519.917 185.754H516.464V183.455H519.917V185.754ZM513.01 185.754H509.555V183.455H513.01V185.754ZM506.101 185.754H502.647V183.455H506.101V185.754ZM499.193 185.754H495.739V183.455H499.193V185.754ZM492.285 185.754H488.831V183.455H492.285V185.754ZM485.377 185.754H481.923V183.455H485.377V185.754ZM478.469 185.754H475.015V183.455H478.469V185.754ZM471.561 185.754H468.107V183.455H471.561V185.754ZM464.653 185.754H461.199V183.455H464.653V185.754ZM457.745 185.754H454.291V183.455H457.745V185.754ZM450.837 185.754H447.383V183.455H450.837V185.754ZM443.929 185.754H440.475V183.455H443.929V185.754ZM437.021 185.754H433.567V183.455H437.021V185.754ZM430.113 185.754H426.659V183.455H430.113V185.754ZM423.205 185.754H419.751V183.455H423.205V185.754ZM416.297 185.754H412.843V183.455H416.297V185.754ZM409.389 185.754H405.935V183.455H409.389V185.754ZM402.481 185.754H399.027V183.455H402.481V185.754ZM395.573 185.754H392.119V183.455H395.573V185.754ZM388.665 185.754H385.211V183.455H388.665V185.754ZM381.757 185.754H378.303V183.455H381.757V185.754ZM374.849 185.754H371.395V183.455H374.849V185.754ZM367.941 185.754H364.487V183.455H367.941V185.754ZM361.033 185.754H357.579V183.455H361.033V185.754ZM354.125 185.754H350.67V183.455H354.125V185.754ZM347.216 185.754H343.762V183.455H347.216V185.754ZM340.308 185.754H336.854V183.455H340.308V185.754ZM333.401 185.754H329.947V183.455H333.401V185.754ZM326.492 185.754H323.038V183.455H326.492V185.754ZM319.584 185.754H316.13V183.455H319.584V185.754ZM312.676 185.754H309.222V183.455H312.676V185.754ZM305.768 185.754H302.314V183.455H305.768V185.754ZM298.86 185.754H295.406V183.455H298.86V185.754ZM291.952 185.754H288.498V183.455H291.952V185.754ZM285.044 185.754H281.59V183.455H285.044V185.754ZM278.136 185.754H274.682V183.455H278.136V185.754ZM271.228 185.754H267.774V183.455H271.228V185.754ZM264.32 185.754H260.866V183.455H264.32V185.754ZM257.412 185.754H253.958V183.455H257.412V185.754ZM250.504 185.754H247.05V183.455H250.504V185.754ZM243.596 185.754H240.141V183.455H243.596V185.754ZM236.687 185.754H233.233V183.455H236.687V185.754ZM229.779 185.754H226.325V183.455H229.779V185.754ZM222.871 185.754H219.417V183.455H222.871V185.754ZM215.963 185.754H212.509V183.455H215.963V185.754ZM209.055 185.754H205.601V183.455H209.055V185.754ZM202.147 185.754H198.693V183.455H202.147V185.754ZM195.239 185.754H191.785V183.455H195.239V185.754ZM188.331 185.754H184.877V183.455H188.331V185.754ZM181.423 185.754H177.969V183.455H181.423V185.754ZM174.515 185.754H171.061V183.455H174.515V185.754ZM167.607 185.754H164.153V183.455H167.607V185.754ZM160.699 185.754H157.245V183.455H160.699V185.754ZM153.791 185.754H150.337V183.455H153.791V185.754ZM146.883 185.754H143.429V183.455H146.883V185.754ZM139.975 185.754H136.521V183.455H139.975V185.754ZM133.067 185.754H129.613V183.455H133.067V185.754ZM126.158 185.754H122.704V183.455H126.158V185.754ZM119.25 185.754H115.796V183.455H119.25V185.754ZM112.342 185.754H108.889V183.455H112.342V185.754ZM105.434 185.754H101.98V183.455H105.434V185.754ZM98.526 185.754H95.072V183.455H98.526V185.754ZM544.174 185.71L544.016 183.417C545.089 183.343 546.156 183.161 547.186 182.876L547.799 185.092C546.62 185.418 545.4 185.626 544.174 185.71ZM551.228 183.759L550.184 181.711C551.138 181.225 552.048 180.639 552.889 179.97L554.319 181.768C553.358 182.533 552.318 183.203 551.228 183.759ZM556.954 179.204L555.195 177.725C555.888 176.902 556.498 176.008 557.011 175.068L559.029 176.168C558.443 177.242 557.745 178.264 556.954 179.204ZM560.456 172.777L558.258 172.103C558.572 171.081 558.783 170.02 558.886 168.949L561.174 169.17C561.056 170.393 560.815 171.607 560.456 172.777ZM561.259 165.609H558.96V162.155H561.259V165.609ZM561.259 158.701H558.96V155.247H561.259V158.701ZM561.259 151.793H558.96V148.339H561.259V151.793ZM561.259 144.884H558.96V141.431H561.259V144.884ZM561.259 137.977H558.96V134.523H561.259V137.977ZM561.259 131.069H558.96V127.615H561.259V131.069ZM561.259 124.16H558.96V120.706H561.259V124.16ZM561.259 117.252H558.96V113.798H561.259V117.252ZM561.259 110.344H558.96V106.89H561.259V110.344ZM561.259 103.436H558.96V99.9821H561.259V103.436ZM561.259 96.5284H558.96V93.0747H561.259V96.5284ZM561.259 89.6203H558.96V86.1662H561.259V89.6203ZM561.259 82.7122H558.96V79.2582H561.259V82.7122ZM561.259 75.8041H558.96V72.35H561.259V75.8041ZM561.259 68.8963H558.96V65.4423H561.259V68.8963ZM561.259 61.9882H558.96V58.5342H561.259V61.9882Z" fill="#97C6FF"/>
<path d="M77.1442 210.934H74.8457V212.657H77.1442V210.934Z" fill="#97C6FF"/>
<path d="M593.867 53.3545H591.568V55.0784H593.867V53.3545Z" fill="#97C6FF"/>
<path d="M593.865 90.9477H591.566V87.3609H593.865V90.9477ZM593.865 83.7741H591.566V80.1873H593.865V83.7741ZM593.865 76.6005H591.566V73.0136H593.865V76.6005ZM593.865 69.4265H591.566V65.8397H593.865V69.4265ZM593.865 62.2528H591.566V58.666H593.865V62.2528Z" fill="#97C6FF"/>
<path d="M594.441 97.4083H591.568V94.5352H593.867V95.1098H594.441V97.4083Z" fill="#97C6FF"/>
<path d="M677.339 198.804H675.04V195.375H677.339V198.804ZM677.339 191.946H675.04V188.517H677.339V191.946ZM677.339 185.089H675.04V181.66H677.339V185.089ZM677.339 178.231H675.04V174.802H677.339V178.231ZM677.339 171.373H675.04V167.944H677.339V171.373ZM677.339 164.515H675.04V161.087H677.339V164.515ZM677.339 157.657H675.04V154.229H677.339V157.657ZM677.339 150.8H675.04V147.371H677.339V150.8ZM677.339 143.942H675.04V140.513H677.339V143.942ZM677.339 137.085H675.04V133.656H677.339V137.085ZM677.339 130.227H675.04V126.798H677.339V130.227ZM677.339 123.369H675.04V119.94H677.339V123.369ZM677.339 116.511H675.04V113.082H677.339V116.511ZM675.029 109.701C674.985 108.649 674.813 107.608 674.518 106.605L676.722 105.955C677.071 107.138 677.274 108.366 677.325 109.606L675.029 109.701ZM673.266 103.729C672.734 102.826 672.091 101.989 671.354 101.241L672.992 99.628C673.86 100.51 674.619 101.497 675.246 102.561L673.266 103.729ZM668.894 99.287C667.999 98.7387 667.038 98.3025 666.038 97.9902L666.723 95.796C667.903 96.1648 669.038 96.6798 670.095 97.3267L668.894 99.287ZM662.951 97.4293C662.704 97.4153 662.455 97.4079 662.205 97.4079H659.589V95.1094H662.205C662.499 95.1094 662.794 95.1178 663.083 95.1343L662.951 97.4293ZM656.16 97.4079H652.731V95.1094H656.16V97.4079ZM649.302 97.4079H645.873V95.1094H649.302V97.4079ZM642.444 97.4079H639.015V95.1094H642.444V97.4079ZM635.587 97.4079H632.158V95.1094H635.587V97.4079ZM628.729 97.4079H625.3V95.1094H628.729V97.4079ZM621.871 97.4079H618.442V95.1094H621.871V97.4079ZM615.013 97.4079H611.584V95.1094H615.013V97.4079ZM608.156 97.4079H604.727V95.1094H608.156V97.4079ZM601.298 97.4079H597.869V95.1094H601.298V97.4079Z" fill="#97C6FF"/>
<path d="M677.338 202.247H675.039V203.971H677.338V202.247Z" fill="#97C6FF"/>
<path d="M563.364 53.2089C563.41 52.6192 563.44 52.0252 563.44 51.4243C563.44 38.8434 553.242 28.6445 540.661 28.6445C528.08 28.6445 517.881 38.8434 517.881 51.4243C517.881 52.0256 517.911 52.6195 517.957 53.2089H563.364Z" fill="#80B2FF"/>
<path d="M638.2 53.2089C638.246 52.6192 638.276 52.0252 638.276 51.4243C638.276 38.8434 628.077 28.6445 615.497 28.6445C602.916 28.6445 592.717 38.8434 592.717 51.4243C592.717 52.0256 592.747 52.6195 592.793 53.2089H638.2Z" fill="#80B2FF"/>
<path d="M611.998 53.2082C612.174 51.8176 612.265 50.4004 612.265 48.9617C612.265 30.5317 597.325 15.5908 578.894 15.5908C560.464 15.5908 545.523 30.5317 545.523 48.9617C545.523 50.4 545.615 51.8173 545.791 53.2082H611.998Z" fill="#80B2FF"/>
<path d="M197.982 312.56H42.7665C39.4986 312.56 36.8496 309.911 36.8496 306.643V218.574C36.8496 215.306 39.4986 212.657 42.7665 212.657H197.982C201.25 212.657 203.899 215.306 203.899 218.574V306.643C203.899 309.911 201.25 312.56 197.982 312.56Z" fill="#4D93FF"/>
<path d="M203.899 231.525H36.8496V248.764H203.899V231.525Z" fill="#0046B3"/>
<path d="M75.1129 293.393H50.5514C48.9901 293.393 47.7246 294.658 47.7246 296.219C47.7246 297.781 48.9901 299.046 50.5514 299.046H75.1129C76.6742 299.046 77.9397 297.781 77.9397 296.219C77.9397 294.658 76.6742 293.393 75.1129 293.393Z" fill="#D1F5FF"/>
<path d="M112.885 293.393H88.3232C86.762 293.393 85.4961 294.658 85.4961 296.219C85.4961 297.781 86.762 299.046 88.3232 299.046H112.885C114.446 299.046 115.712 297.781 115.712 296.22C115.712 294.658 114.446 293.393 112.885 293.393Z" fill="#D1F5FF"/>
<path d="M150.656 293.393H126.095C124.533 293.393 123.268 294.658 123.268 296.22C123.268 297.781 124.533 299.046 126.095 299.046H150.656C152.217 299.046 153.483 297.781 153.483 296.22C153.483 294.658 152.217 293.393 150.656 293.393Z" fill="#D1F5FF"/>
<path d="M188.426 293.393H163.864C162.303 293.393 161.037 294.658 161.037 296.22C161.037 297.781 162.303 299.046 163.864 299.046H188.426C189.987 299.046 191.253 297.781 191.253 296.22C191.253 294.658 189.987 293.393 188.426 293.393Z" fill="#D1F5FF"/>
<path d="M49.4208 217.729C47.6976 217.729 46.3008 219.125 46.3008 220.849V221.945C46.3008 223.668 47.6976 225.065 49.4208 225.065C51.144 225.065 52.5408 223.668 52.5408 221.945V220.849C52.5408 219.125 51.144 217.729 49.4208 217.729Z" fill="#D1F5FF"/>
<path d="M56.1426 221.396C56.1426 223.422 57.785 225.064 59.8109 225.064H72.8115C74.8375 225.064 76.4795 223.422 76.4795 221.396C76.4795 219.371 74.8371 217.729 72.8115 217.729H59.8109C57.785 217.728 56.1426 219.37 56.1426 221.396Z" fill="#D1F5FF"/>
<path d="M54.4375 258.037H71.2287C73.9199 258.037 76.1017 260.219 76.1017 262.91V277.387C76.1017 280.078 73.9202 282.26 71.2287 282.26H54.4375C51.7463 282.26 49.5645 280.078 49.5645 277.387V262.91C49.5648 260.219 51.7463 258.037 54.4375 258.037Z" fill="#FFBD73"/>
<path d="M324.134 96.5048C326.498 87.1763 326.886 77.7537 325.537 68.7712L328.39 68.3427L334.026 67.5001L334.097 67.4846C332.568 57.2033 329.054 47.4017 323.793 38.6145L316.371 43.0358C311.609 35.0863 305.33 28.0398 297.733 22.4558L302.885 15.494C294.85 9.4935 285.497 4.95518 275.182 2.34129L273.052 10.7464C263.691 8.37411 254.3 7.99407 245.318 9.34317L244.031 0.783203C233.749 2.31143 223.94 5.8568 215.161 11.0867L219.583 18.5094C211.632 23.2714 204.587 29.5501 199.002 37.1477L192.041 31.9954C186.041 40.0296 181.501 49.383 178.887 59.6988L187.293 61.8287C184.921 71.1895 184.54 80.5798 185.89 89.5619L179.833 90.4667L177.362 90.8573L177.33 90.8492C178.858 101.13 182.404 110.94 187.633 119.719L195.056 115.297C199.818 123.247 206.128 130.301 213.726 135.886L208.573 142.848C216.608 148.848 225.93 153.378 236.245 155.993L238.375 147.587C247.735 149.959 257.158 150.348 266.14 148.999L267.13 155.653L267.427 157.558C277.708 156.03 287.486 152.476 296.265 147.247L291.844 139.824C299.794 135.062 306.848 128.752 312.464 121.162L319.426 126.315C325.395 118.272 329.925 108.95 332.539 98.6347L324.134 96.5048ZM246.298 116.322C225.762 111.118 213.354 90.2869 218.557 69.7512C223.753 49.2474 244.585 36.8397 265.12 42.0436C285.624 47.2394 298.032 68.0701 292.836 88.5739C287.633 109.11 266.802 121.518 246.298 116.322Z" stroke="#D2E4FF" stroke-width="1.37916" stroke-miterlimit="10"/>
<path d="M153.773 107.432C150.616 103.469 146.79 100.304 142.595 98.0071L143.325 96.6745L144.767 94.0441L144.784 94.0093C139.987 91.374 134.76 89.7235 129.4 89.1289L128.888 93.6486C124.039 93.1116 119.085 93.4979 114.324 94.9032L113.047 90.5254C107.972 91.9809 103.09 94.4554 98.707 97.946L101.551 101.517C97.5742 104.685 94.423 108.5 92.1262 112.694L88.1285 110.506C85.4928 115.302 83.8532 120.543 83.248 125.89L87.7681 126.401C87.2307 131.251 87.6174 136.205 89.0224 140.966L84.6446 142.242C86.1004 147.317 88.5742 152.2 92.0651 156.583L95.6365 153.738C98.8039 157.715 102.619 160.867 106.814 163.163L105.263 165.991L104.639 167.151L104.626 167.162C109.422 169.797 114.663 171.437 120.009 172.042L120.521 167.522C125.371 168.059 130.338 167.662 135.1 166.257L136.376 170.635C141.451 169.179 146.32 166.716 150.703 163.225L147.859 159.654C151.835 156.487 155.001 152.661 157.297 148.466L160.402 150.172L161.295 150.655C163.93 145.858 165.556 140.628 166.162 135.282L161.642 134.77C162.179 129.92 161.782 124.953 160.39 120.181L164.768 118.905C163.299 113.84 160.835 108.971 157.345 104.588L153.773 107.432ZM137.277 146.371C128.553 153.32 115.867 151.883 108.918 143.159C101.98 134.448 103.417 121.763 112.141 114.814C120.852 107.875 133.537 109.312 140.476 118.023C147.425 126.748 145.988 139.433 137.277 146.371Z" stroke="#D2E4FF" stroke-width="1.37916" stroke-miterlimit="10"/>
<path d="M714.933 386.837C711.29 382.264 706.875 378.611 702.035 375.961L702.876 374.423L704.541 371.388L704.56 371.348C699.025 368.307 692.992 366.402 686.807 365.716L686.217 370.931C680.621 370.312 674.904 370.757 669.409 372.379L667.937 367.327C662.08 369.007 656.446 371.862 651.388 375.89L654.671 380.011C650.081 383.666 646.445 388.068 643.794 392.909L639.181 390.384C636.14 395.919 634.247 401.967 633.549 408.136L638.765 408.727C638.145 414.323 638.591 420.04 640.212 425.535L635.16 427.008C636.84 432.864 639.695 438.499 643.723 443.556L647.844 440.274C651.5 444.863 655.902 448.5 660.743 451.15L658.953 454.412L658.233 455.751L658.218 455.764C663.752 458.805 669.801 460.697 675.97 461.396L676.56 456.179C682.157 456.799 687.888 456.341 693.383 454.72L694.856 459.772C700.712 458.092 706.332 455.249 711.389 451.221L708.107 447.1C712.696 443.445 716.348 439.03 718.999 434.19L722.581 436.158L723.612 436.715C726.653 431.18 728.529 425.144 729.228 418.975L724.012 418.384C724.632 412.788 724.174 407.055 722.568 401.548L727.62 400.075C725.925 394.231 723.081 388.613 719.053 383.555L714.933 386.837ZM695.898 431.772C685.83 439.791 671.192 438.133 663.173 428.065C655.166 418.013 656.825 403.375 666.892 395.356C676.945 387.349 691.582 389.007 699.589 399.059C707.608 409.127 705.95 423.765 695.898 431.772Z" stroke="#00224D" stroke-width="1.37916" stroke-miterlimit="10"/>
<path d="M715.686 500.783H67.0737C64.9512 500.783 63.2305 499.062 63.2305 496.94C63.2305 494.817 64.9512 493.097 67.0737 493.097H715.686C717.808 493.097 719.529 494.817 719.529 496.94C719.529 499.062 717.808 500.783 715.686 500.783Z" fill="#003C99"/>
<path d="M653.622 473.571H133.057C126.053 473.571 120.375 467.893 120.375 460.889V137.839C120.375 130.835 126.053 125.157 133.057 125.157H653.622C660.626 125.157 666.304 130.835 666.304 137.839V460.889C666.304 467.893 660.626 473.571 653.622 473.571Z" fill="#B3D1FF"/>
<path d="M133.057 471.217C127.362 471.217 122.729 466.584 122.729 460.888V137.839C122.729 132.144 127.362 127.511 133.057 127.511H653.621C659.316 127.511 663.95 132.144 663.95 137.839V460.888C663.95 466.584 659.316 471.217 653.621 471.217H133.057Z" fill="black"/>
<path d="M648.416 139.243H138.814V457.866H648.416V139.243Z" fill="#005CEA"/>
<path d="M703.647 473.569V482.055C703.647 482.488 703.624 482.916 703.57 483.334C702.94 488.83 698.271 493.098 692.605 493.098H87.0347C81.3686 493.098 76.7028 488.83 76.0734 483.334C76.0193 482.916 75.9961 482.488 75.9961 482.055V473.569H703.647Z" fill="#599AFF"/>
<path d="M703.569 483.334C702.939 488.83 698.27 493.098 692.603 493.098H87.0336C81.3675 493.098 76.7017 488.83 76.0723 483.334H703.569Z" fill="#406EFF"/>
<path opacity="0.3" d="M536.295 398.243H254.146C246.431 398.243 240.178 391.989 240.178 384.274V220.798C240.178 213.084 246.431 206.83 254.146 206.83H536.295C544.009 206.83 550.263 213.084 550.263 220.798V384.274C550.263 391.989 544.01 398.243 536.295 398.243Z" fill="#80B2FF"/>
<path d="M442.212 348.589H396.658C392.804 348.589 389.65 345.435 389.65 341.581C389.65 337.727 392.804 334.573 396.658 334.573H442.212C446.066 334.573 449.22 337.727 449.22 341.581C449.22 345.436 446.066 348.589 442.212 348.589Z" fill="#FF9F34"/>
<path d="M475.293 292.752H375.895C372.04 292.752 368.887 289.598 368.887 285.744C368.887 281.89 372.04 278.736 375.895 278.736H475.293C479.148 278.736 482.301 281.89 482.301 285.744C482.301 289.598 479.148 292.752 475.293 292.752Z" fill="white"/>
<path d="M475.293 319.135H375.895C372.04 319.135 368.887 315.981 368.887 312.127C368.887 308.273 372.04 305.119 375.895 305.119H475.293C479.148 305.119 482.301 308.273 482.301 312.127C482.301 315.981 479.148 319.135 475.293 319.135Z" fill="white"/>
<path d="M392.714 312.748C392.714 314.111 391.61 315.215 390.247 315.215C388.884 315.215 387.779 314.111 387.779 312.748C387.779 311.385 388.884 310.28 390.247 310.28C391.61 310.28 392.714 311.385 392.714 312.748Z" fill="#80B2FF"/>
<path d="M401.173 312.748C401.173 314.111 400.068 315.215 398.706 315.215C397.343 315.215 396.238 314.111 396.238 312.748C396.238 311.385 397.343 310.28 398.706 310.28C400.068 310.28 401.173 311.385 401.173 312.748Z" fill="#80B2FF"/>
<path d="M409.632 312.748C409.632 314.111 408.528 315.215 407.165 315.215C405.802 315.215 404.697 314.111 404.697 312.748C404.697 311.385 405.802 310.28 407.165 310.28C408.528 310.28 409.632 311.385 409.632 312.748Z" fill="#80B2FF"/>
<path d="M418.091 312.748C418.091 314.111 416.986 315.215 415.624 315.215C414.261 315.215 413.156 314.111 413.156 312.748C413.156 311.385 414.261 310.28 415.624 310.28C416.986 310.28 418.091 311.385 418.091 312.748Z" fill="#80B2FF"/>
<path d="M426.552 312.748C426.552 314.111 425.447 315.215 424.085 315.215C422.722 315.215 421.617 314.111 421.617 312.748C421.617 311.385 422.722 310.28 424.085 310.28C425.447 310.28 426.552 311.385 426.552 312.748Z" fill="#80B2FF"/>
<path d="M435.011 312.748C435.011 314.111 433.906 315.215 432.544 315.215C431.181 315.215 430.076 314.111 430.076 312.748C430.076 311.385 431.181 310.28 432.544 310.28C433.906 310.28 435.011 311.385 435.011 312.748Z" fill="#80B2FF"/>
<path d="M443.47 312.748C443.47 314.111 442.365 315.215 441.003 315.215C439.64 315.215 438.535 314.111 438.535 312.748C438.535 311.385 439.64 310.28 441.003 310.28C442.365 310.28 443.47 311.385 443.47 312.748Z" fill="#80B2FF"/>
<path d="M451.929 312.748C451.929 314.111 450.824 315.215 449.462 315.215C448.099 315.215 446.994 314.111 446.994 312.748C446.994 311.385 448.099 310.28 449.462 310.28C450.824 310.28 451.929 311.385 451.929 312.748Z" fill="#80B2FF"/>
<path d="M460.388 312.748C460.388 314.111 459.283 315.215 457.921 315.215C456.558 315.215 455.453 314.111 455.453 312.748C455.453 311.385 456.558 310.28 457.921 310.28C459.283 310.28 460.388 311.385 460.388 312.748Z" fill="#80B2FF"/>
<path d="M422.531 262.757C430.616 262.757 437.169 256.203 437.169 248.119C437.169 240.034 430.616 233.48 422.531 233.48C414.446 233.48 407.893 240.034 407.893 248.119C407.893 256.203 414.446 262.757 422.531 262.757Z" fill="white"/>
<path d="M422.551 247.53C423.98 247.53 425.3 246.834 426.143 245.771C426.765 245.002 427.132 244.012 427.132 242.913C427.132 240.384 425.079 238.295 422.551 238.295C419.986 238.295 417.934 240.384 417.934 242.913C417.934 244.012 418.3 245.002 418.923 245.771C419.766 246.835 421.085 247.53 422.551 247.53Z" fill="#005CEA"/>
<path d="M430.665 255.759C430.665 258.672 414.393 258.672 414.393 255.759L414.398 252.363C415.041 247.721 429.343 247.526 430.668 252.363L430.665 255.759Z" fill="#005CEA"/>
<path d="M390.932 310.835V310.459C390.932 308.939 389.695 307.701 388.174 307.701C386.653 307.701 385.417 308.938 385.417 310.459V310.835H384.998V315.804C384.998 316.663 391.368 316.663 391.368 315.804V310.835H390.932ZM386.4 310.459C386.4 309.505 386.988 308.639 388.174 308.639C389.36 308.639 389.968 309.45 389.968 310.459V310.835H386.4V310.459ZM388.643 313.338V314.773C388.643 315.031 388.422 315.215 388.164 315.215C387.907 315.215 387.723 315.031 387.723 314.773V313.338C387.465 313.191 387.281 312.933 387.281 312.602C387.281 312.123 387.686 311.718 388.164 311.718C388.644 311.718 389.048 312.123 389.048 312.602C389.048 312.932 388.864 313.191 388.643 313.338Z" fill="#4D4D4D"/>
<path d="M378.988 285.236C379.546 285.236 380.06 284.964 380.39 284.549C380.633 284.249 380.776 283.862 380.776 283.433C380.776 282.446 379.975 281.631 378.988 281.631C377.986 281.631 377.186 282.446 377.186 283.433C377.186 283.862 377.329 284.249 377.572 284.549C377.9 284.964 378.415 285.236 378.988 285.236Z" fill="#4D4D4D"/>
<path d="M382.154 288.447C382.154 289.584 375.77 289.584 375.77 288.447L375.804 287.122C376.055 285.31 381.637 285.234 382.155 287.122L382.154 288.447Z" fill="#4D4D4D"/>
<path d="M415.648 287.801H389.836C388.705 287.801 387.779 286.875 387.779 285.744C387.779 284.613 388.705 283.688 389.836 283.688H415.648C416.779 283.688 417.705 284.613 417.705 285.744C417.705 286.875 416.779 287.801 415.648 287.801Z" fill="#80B2FF"/>
<path d="M399.65 272.795H374.726C373.595 272.795 372.67 271.869 372.67 270.738C372.67 269.607 373.595 268.682 374.726 268.682H399.65C400.781 268.682 401.706 269.607 401.706 270.738C401.706 271.869 400.781 272.795 399.65 272.795Z" fill="#80B2FF"/>
<path d="M449.691 287.801H423.879C422.748 287.801 421.822 286.875 421.822 285.744C421.822 284.613 422.748 283.688 423.879 283.688H449.691C450.822 283.688 451.748 284.613 451.748 285.744C451.748 286.875 450.822 287.801 449.691 287.801Z" fill="#80B2FF"/>
<path d="M291.082 284.824V321.176C291.082 325.216 340.511 325.216 340.511 321.176V284.824H291.082Z" fill="white"/>
<path d="M315.796 304.657C319.166 304.657 321.898 301.925 321.898 298.554C321.898 295.184 319.166 292.452 315.796 292.452C312.425 292.452 309.693 295.184 309.693 298.554C309.693 301.925 312.425 304.657 315.796 304.657Z" fill="#005CEA"/>
<path d="M315.796 316.932C314.415 316.932 313.295 315.812 313.295 314.431V300.435H318.298V314.431C318.297 315.812 317.177 316.932 315.796 316.932Z" fill="#005CEA"/>
<path d="M336.179 282.235H331.176V279.786C331.176 271.305 324.276 264.406 315.795 264.406C307.314 264.406 300.415 271.305 300.415 279.786V282.235H295.412V279.786C295.412 268.547 304.556 259.403 315.795 259.403C327.035 259.403 336.178 268.547 336.178 279.786L336.179 282.235Z" fill="white"/>
<path d="M528.383 282.832L530.746 292.329L531.175 294.094C531.652 296.337 546.469 295.383 545.419 292.758L544.536 290.826L539.979 280.828L528.383 282.832Z" fill="#F7A58E"/>
<path d="M519.716 268.744C519.565 279.041 524.345 287.414 531.825 287.378C539.305 287.342 546.542 280.996 546.804 268.613C546.971 260.724 540.671 254.356 533.191 254.392C525.711 254.428 519.832 260.855 519.716 268.744Z" fill="#F7A58E"/>
<path d="M532.968 251.561C532.968 251.561 518.063 252.296 516.823 263.585C515.168 273.492 522.601 266.208 525.636 272.857C529.112 280.473 525.57 286.046 521.052 287.559C525.068 293.167 548.034 292.965 553.943 283.126C557.991 270.785 552.264 252.245 532.968 251.561Z" fill="black"/>
<path d="M522.517 272.449C522.393 273.978 523.531 275.318 525.06 275.442C526.588 275.566 527.928 274.428 528.052 272.899C528.177 271.371 527.038 270.031 525.51 269.907C523.981 269.782 522.641 270.921 522.517 272.449Z" fill="#F7A58E"/>
<path d="M524.801 464.018C524.102 463.278 520.806 463.267 520.505 464.361C520.204 465.455 520.785 466.237 519.395 467.972C520.195 468.203 523.034 468.225 523.903 467.972C524.772 467.719 525.499 464.758 524.801 464.018Z" fill="white"/>
<path d="M530.246 467.757H522.215C521.464 433.773 521.608 396.777 521.878 368.914C521.975 358.936 522.251 353.89 524.06 347.899C527.715 335.802 544.9 339.527 546.119 350.491C546.628 356.575 547 368.445 535.752 408.778C540.622 426.537 532.124 447.828 530.246 467.757Z" fill="#00050D"/>
<path d="M517.717 468.276C518.9 468.213 521.663 467.074 522.183 466.288C522.951 467.146 524.549 467.383 526.479 467.095C528.758 466.755 529.059 465.696 530.694 465.837C531.383 467.753 533.062 472.053 531.442 473.051C531.442 473.051 521.865 473.051 514.556 473.051C513.049 471.674 513.089 468.736 517.717 468.276Z" fill="white"/>
<path d="M565.688 464.876C565.1 464.254 562.331 464.245 562.078 465.164C561.825 466.084 562.313 466.741 561.145 468.199C561.817 468.393 564.203 468.411 564.933 468.199C565.663 467.987 566.275 465.498 565.688 464.876Z" fill="white"/>
<path d="M539.22 350.183C540.862 337.653 563.152 338.94 564.634 349.88C565.169 355.767 566.804 364.628 562.615 408.352C571.452 425.038 568.955 448.98 571.595 466.605C571.886 469.287 564.29 469.931 563.7 467.541C555.604 434.842 544.292 398.155 540.087 370.951C538.561 361.09 538.408 356.388 539.22 350.183Z" fill="#00050D"/>
<path d="M559.711 467.757C560.894 467.693 562.639 466.154 563.159 465.368C563.927 466.226 565.392 467.382 567.322 467.094C569.601 466.754 569.902 465.695 571.536 465.836C572.226 467.752 573.905 472.052 572.285 473.05C572.285 473.05 563.168 473.05 555.86 473.05C554.353 471.673 555.083 468.217 559.711 467.757Z" fill="white"/>
<path d="M468.207 332.473L467.375 328.297C469.415 327.502 472.507 325.853 476.105 324.452L478.08 331.222C474.097 331.814 470.567 332.246 468.207 332.473Z" fill="#F7A58E"/>
<path d="M476.104 324.452C483.038 321.229 494.916 314.219 497.647 312.948L526.955 294.953C533.277 293.034 540.648 305.546 532.656 311.192C532.656 311.192 487.334 329.847 478.079 331.222L476.104 324.452Z" fill="#FF7268"/>
<path d="M465.242 335.831C462.406 334.981 461.425 330.805 461.352 330.487L467.217 328.347C470.071 327.194 471.704 330.643 469.903 333.135C469.903 333.135 467.942 336.46 465.242 335.831Z" fill="#F7A58E"/>
<path d="M462.715 332.119C455.94 333.573 456.203 331.913 456.203 331.913C456.203 331.913 458.488 331.154 462.616 330.027C465.001 329.495 464.345 331.591 462.715 332.119Z" fill="#F7A58E"/>
<path d="M522.054 312.834C520.645 305.979 519.89 299.21 526.955 294.954C531.145 292.43 544.611 290.628 550.907 292.712C557.252 295.547 555.88 307.913 557.068 327.442C561.44 337.187 563.341 340.389 564.635 349.881C564.635 349.881 562.296 357.033 545.819 357.042C538.337 357.046 527.317 356.381 522.303 352.565C522.803 346.092 525.51 339.855 526.638 330.691C526.638 330.691 522.156 313.62 522.054 312.834Z" fill="#FF7268"/>
<path d="M554.291 294.09C562.025 299.994 569.569 309.279 573.134 314.21C576.699 319.141 585.933 338.957 585.933 338.957L580.056 343.29L564.16 321.63L544.74 305.702C538.001 298.824 546.759 288.339 554.291 294.09Z" fill="#FF7268"/>
<path d="M588.394 343.983L584.585 336.112C583.689 338.479 579.328 340.638 578.076 340.593C578.076 340.593 582.172 346.487 583.174 347.489C584.175 348.491 588.312 346.795 588.394 343.983Z" fill="#F7A58E"/>
<path d="M582.21 346.173C582.225 346.232 582.208 346.311 582.223 346.37C582.414 349.234 584.616 350.589 585.211 350.91C585.259 350.948 585.312 350.96 585.365 350.971C583.294 350.556 582.674 353.33 583.727 353.97C586.775 356.033 591.118 353.196 591.485 351.475C591.858 349.728 588.387 343.949 588.387 343.949C586.616 342.519 582.084 342.742 582.21 346.173Z" fill="#F7A58E"/>
<path d="M582.223 346.37C582.345 349.607 585.262 350.939 585.315 350.95C587.022 350.903 587.63 350.8 589.259 350.804C588.196 350.285 586.016 348.906 586.86 346.228C585.191 344.95 582.679 346.067 582.223 346.37Z" fill="#E6856A"/>
<path d="M582.179 346.002C581.73 348.674 581.92 352.481 582.556 354.157C582.556 354.157 584.194 354.243 584.04 351.149C584 350.344 584.116 348.595 584.913 348.013C587.365 346.392 587.76 344.905 586.86 343.686C585.662 342.061 582.274 343.71 582.179 346.002Z" fill="#F7A58E"/>
<path d="M589.769 353.305C588.438 354.227 584.916 356.016 584.36 355.575C583.805 355.133 586.621 352.136 588.439 351.739C590.256 351.342 590.45 352.833 589.769 353.305Z" fill="#F7A58E"/>
<path d="M489.547 125.134C493.352 119.623 489.85 102.475 473.605 97.5486C459.881 94.0099 452.738 98.3511 434.174 103.405L436.944 125.134H489.547Z" fill="#50318F"/>
<path d="M456.433 98.4442C456.433 98.4442 423.179 105.312 410.904 109.828C403.864 112.417 402.118 118.24 404.831 122.72C408.85 129.355 456.557 124.649 456.557 124.649C473.014 120.042 464.302 98.1566 456.433 98.4442Z" fill="#50318F"/>
<path d="M471.91 96.5805C471.91 96.5805 493.146 103.784 505.089 109.116C516.68 110.029 515.92 124.423 510.433 125.352C497.815 128.776 470.021 122.717 470.021 122.717C453.911 117.013 464.077 95.7636 471.91 96.5805Z" fill="#50318F"/>
<path d="M438.238 111.393C438.238 111.393 431.542 101.204 448.159 93.3114C464.775 85.4188 475.952 93.3086 473.183 102.863C470.413 112.417 460.621 118.79 460.621 118.79C460.621 118.79 444.053 118.87 438.238 111.393Z" fill="#50318F"/>
<path d="M456.944 110.029C464.94 104.48 461.727 93.6745 461.727 93.6745L458.7 87.8977L456.178 83.0879L442.836 88.2268L445.264 98.1036C445.264 98.1036 445.924 100.417 447.373 103.002C449.213 106.285 452.319 110.014 456.944 110.029Z" fill="#F7A28A"/>
<path d="M447.373 103.002C453.778 98.8703 457.054 92.6292 458.7 87.8977L456.178 83.0879L442.836 88.2268L445.264 98.1036C445.264 98.1036 445.924 100.416 447.373 103.002Z" fill="#F0896C"/>
<path d="M427.485 70.3831C427.485 70.3831 424.414 71.2029 423.973 74.8698C423.531 78.5367 427.172 80.0344 427.172 80.0344C427.172 80.0344 424.788 84.611 429.826 86.4623C440.093 90.2349 439.092 68.0952 427.485 70.3831Z" fill="#3D3D3D"/>
<path d="M430.408 82.2034C433.554 91.4855 440.101 100.181 445.37 98.0164C454.306 94.3456 461.806 84.3621 458.096 73.8517C454.387 63.3413 446.418 58.5108 437.967 61.4935C429.515 64.4761 426.83 71.6477 430.408 82.2034Z" fill="#F7A28A"/>
<path d="M426.107 70.217C427.994 71.8176 434.986 74.5358 449.445 67.5322C451.848 69.2662 453.634 71.9068 454.857 74.8407C456.22 74.5179 456.772 73.8087 457.71 74.9752C459.008 76.5867 459.69 80.1148 458.079 81.4119C457.67 81.741 457.214 81.9683 456.738 82.1018C456.16 84.5738 456.71 87.2923 458.701 87.8975C461.776 85.4227 461.404 84.8495 462.54 81.9992C466.128 79.4808 466.137 73.9534 463.247 72.4407C465.989 69.8693 462.678 64.2344 458.619 64.0472C458.646 60.9307 454.68 55.3632 449.695 58.6209C449.839 55.2709 443.757 53.0725 440.466 58.007C437.815 54.3903 429.769 56.5789 430.078 61.3855C425.211 60.5411 422.541 67.0826 426.107 70.217Z" fill="#3D3D3D"/>
<path d="M404.839 120.224C404.839 120.224 403.997 128.297 418.87 129.59C435.808 131.063 450.105 130.634 450.105 130.634L451.628 124.237C451.628 124.237 421.58 114.045 414.226 113.6C405.466 113.072 404.839 120.224 404.839 120.224Z" fill="#F7A28A"/>
<path d="M451.266 124.115L460.755 122.133C460.755 122.133 466.87 125.058 468.771 128.861C467.379 130.421 463.584 127.131 463.584 127.131C463.584 127.131 463.967 133.492 463.035 134.701C462.104 135.91 457.443 136.715 455.916 135.403C454.389 134.091 457.046 132.53 457.046 132.53L450.106 130.634C450.106 130.634 446.876 125.791 451.266 124.115Z" fill="#F7A28A"/>
<path d="M456.443 69.956C456.443 69.8116 456.326 69.6943 456.182 69.6943C456.037 69.6943 455.92 69.8113 455.92 69.956C455.92 70.1007 456.037 70.2177 456.182 70.2177C456.326 70.2173 456.443 70.1004 456.443 69.956Z" fill="#F7A28A"/>
<path d="M511.08 115.606C511.08 115.606 516.09 121.992 504.187 131.003C490.631 141.266 478.3 148.512 478.3 148.512L473.605 143.907C473.605 143.907 493.619 119.285 499.609 114.995C506.742 109.885 511.08 115.606 511.08 115.606Z" fill="#F7A28A"/>
<path d="M473.596 143.9L468.301 152.02C468.301 152.02 468.804 158.78 471.655 161.933C473.615 161.204 471.93 156.472 471.93 156.472C471.93 156.472 477.716 159.141 479.181 158.712C480.646 158.283 483.09 154.234 482.422 152.334C481.755 150.435 479.335 152.343 479.335 152.343L480.484 146.299C481.423 142.929 475.817 140.498 473.596 143.9Z" fill="#F7A28A"/>
<path d="M211.564 265.36C212.483 274.027 208.116 283.268 202.621 283.201C195.083 283.109 185.337 276.906 184.418 268.239C183.498 259.571 188.83 251.901 196.327 251.106C203.823 250.311 210.645 256.693 211.564 265.36Z" fill="#F7B28A"/>
<path d="M164.854 464.879C164.854 464.879 172.77 463.993 178.943 464.879C184.061 468.259 186.27 468.062 186.27 468.062C188.457 468.634 189.433 471.639 187.534 471.639H164.215L164.854 464.879Z" fill="white"/>
<path d="M202.617 464.879C202.617 464.879 210.398 463.993 216.706 464.879C222.343 468.259 224.521 468.062 224.521 468.062C226.796 468.634 228.232 471.639 226.334 471.639H203.014L202.617 464.879Z" fill="white"/>
<path d="M195.364 293.46L180.707 288.511L191.325 266.4L201.63 271.349L195.364 293.46Z" fill="#F7B28A"/>
<path d="M209.913 308.969C209.913 308.969 221.283 317.3 215.734 326.14C211.598 332.728 198.359 325.594 198.359 317.93C198.359 311.021 203.678 306.947 209.913 308.969Z" fill="#F2B231"/>
<path d="M174.788 343.266C174.788 343.266 172.054 348.005 170.225 357.446C169.576 360.801 170.336 375.974 170.12 401.528C164.803 434.574 164.213 467.669 164.213 467.669L178.941 464.88L201.486 344.642L174.788 343.266Z" fill="#333333"/>
<path d="M208.127 346.329C211.021 369.015 213.114 389.381 213.302 404.234L216.705 464.88L202.702 467.557C199.831 448.738 195.054 425.234 194.298 403.432L179.029 346.508L208.127 346.329Z" fill="#333333"/>
<path d="M170.429 345.165C171.4 351.029 171.928 351.425 171.928 351.425L209.235 352.249C209.235 352.249 208.126 346.329 209.065 343.266C209.238 342.7 209.282 340.929 209.033 338.281C208.679 334.483 207.873 328.944 206.791 322.88C204.464 309.846 200.859 294.388 197.686 288.581L181.401 284.673C181.401 284.673 174.137 292.039 172.538 298.56C170.936 305.081 169.458 339.305 170.429 345.165Z" fill="#FFD834"/>
<path d="M196.674 318.594L209.033 338.281C208.68 334.484 207.874 328.944 206.792 322.881L196.674 318.594Z" fill="#F2B231"/>
<path d="M192.219 313.687C192.219 313.687 187.837 323.123 192.387 325.65C196.937 328.178 201.486 320.09 201.486 320.09L192.219 313.687Z" fill="#F7B28A"/>
<path d="M210.261 288.54L207.108 308.903L197.296 297.351C197.296 297.351 188.477 288.408 181.397 296.481C174.317 304.555 185.371 312.629 185.371 312.629C185.371 312.629 201.519 325.771 211.828 324.405C222.138 323.039 215.703 288.927 215.703 288.927L210.261 288.54Z" fill="#FFD834"/>
<path d="M210.262 288.54L208.672 280.784L212.726 274.628C212.726 274.628 214.236 273.515 214.793 276.933C215.903 278.523 217.257 279.701 217.098 281.497C216.939 283.293 215.703 288.927 215.703 288.927L210.262 288.54Z" fill="#F7B28A"/>
<path d="M181.404 284.672L182.557 281.691L199.81 288.54L201.167 296.031L181.404 284.672Z" fill="#FFEAC2"/>
<path d="M186.251 277.113C186.251 277.113 180.623 269.013 182.384 259.328C184.145 249.643 198.496 247.618 198.496 247.618C198.496 247.618 213.464 246.737 216.81 261.969C215.225 263.994 208.71 260.648 208.71 260.648L198 270.421C198 270.421 198.126 262.761 194.349 264.698C190.573 266.635 191.7 272.798 191.7 272.798C191.7 272.798 188.18 276.496 186.251 277.113Z" fill="black"/>
<path d="M597.842 226.517C597.843 226.254 597.844 226.138 597.844 226.111C597.843 226.16 597.842 226.517 597.842 226.517Z" fill="#D9FFFF"/>
<path d="M597.842 226.517C597.843 226.254 597.844 226.138 597.844 226.111C597.843 226.16 597.842 226.517 597.842 226.517Z" fill="#D9FFFF"/>
<path d="M754.869 227.219C754.869 227.219 754.871 226.862 754.871 226.813C754.871 226.84 754.87 226.956 754.869 227.219Z" fill="#D9FFFF"/>
<path d="M754.869 227.219C754.869 227.219 754.871 226.862 754.871 226.813C754.871 226.84 754.87 226.956 754.869 227.219Z" fill="#D9FFFF"/>
<path d="M676.646 189.618C659.264 208.238 631.528 223.497 601.848 229.999C601.839 231.981 601.79 242.964 601.564 293.584C601.262 361.11 665.527 394.109 675.504 399.173C685.171 394.723 750.247 361.776 750.549 294.25C750.775 243.629 750.824 232.647 750.833 230.665C721.212 223.898 693.861 208.392 676.646 189.618Z" fill="white"/>
<path d="M676.491 196.941C658.572 213.38 633.746 226.299 606.448 233.341L606.179 293.571C606.055 321.131 617.004 346.062 638.721 367.676C652.991 381.877 667.994 390.685 675.607 394.646C675.934 394.48 676.293 394.292 676.647 394.108V197.082C676.595 197.034 676.541 196.989 676.491 196.941Z" fill="#80B2FF"/>
<path d="M676.646 197.082V394.108C684.563 389.99 698.952 381.477 712.731 368.007C734.64 346.588 745.812 321.756 745.934 294.196L746.203 233.965C719.047 226.702 694.405 213.613 676.646 197.082Z" fill="#4D93FF"/>
<path d="M731.343 257.452C710.561 260.657 682.261 279.612 664.408 302.403C661.904 291.657 650.662 281.846 644.78 279.702L626.961 297.612C638.087 302.626 650.245 316.833 651.857 331.377L669.658 334.135C677.163 319.31 696.546 283.85 735.107 264.782C734.364 261.88 731.641 257.866 731.343 257.452Z" fill="#0046B3"/>
</svg>
